<svg xmlns="http://www.w3.org/2000/svg" width="1024" height="1024"><path d="M426.796 1007.73c-1.39-1.709-4.573-5.608-7.073-8.664-2.65-3.239-6.13-5.557-8.345-5.557-4.027 0-5.742-2.065-56.687-68.25-14.055-18.26-27.099-35.047-28.985-37.304l-3.431-4.104-19.652 2.612c-10.808 1.437-43.504 5.712-72.656 9.5s-54.964 7.23-57.36 7.65c-7.689 1.345-9.652-1.278-6.268-8.375 5.173-10.847 4.587-11.45-9.858-10.14-19.074 1.728-22.28 13.37 29.005-105.315 14.831-34.325 32.262-75.104 38.734-90.62s13.795-32.576 16.274-37.91c5.6-12.047 5.041-17.712-4.444-45.148-12.78-36.961-16.233-41.553-59.6-79.23-69.537-60.412-79.557-107.743-35.72-168.736 16.473-22.922 22.767-47.485 25.065-97.83 4.478-98.091 37.908-137.59 147.797-174.625 40.647-13.7 52.01-19.343 79.662-39.565C446.025 7.53 479.05 4.818 546.441 33.545c43.73 18.64 57.945 19.654 104.309 7.442 59.185-15.588 94.21-4.44 132.102 42.047 19.33 23.716 21.294 28.514 34.172 83.509 6.076 25.945 14.763 41.198 36.01 63.23 67.539 70.032 71.429 92.087 28.79 163.239-20.925 34.917-20.192 54.768 3.863 104.652 38.734 80.322 19.508 123.463-58.65 131.604-20.215 2.105-38.005 6.865-44.097 11.799l-3.91 3.165 29.595 69.058c28.36 66.174 54.236 126.017 72.113 166.769 12.373 28.204 14.073 26.96-28.758 21.051-131.875-18.191-128.339-17.774-131.13-15.457-1.253 1.039-17.96 22.365-37.128 47.392s-40.252 52.517-46.854 61.089c-14.813 19.234-16.018 19.582-21.757 6.28-4.283-9.925-6.727-12.269-8.985-8.615-3.617 5.852-8.436.197-16.957-19.899-8.215-19.373-59.684-138.108-65.051-150.068-5.793-12.91-6.457-12.275-18.6 17.794-5.126 12.695-14.346 34.624-20.488 48.73-6.143 14.106-20.419 47.178-31.724 73.493-21.179 49.297-22.239 51.132-26.51 45.881" style="fill:#e8e8e8;stroke-width:1.70981"/><path d="M423.051 998.916c-5.445-7.293-7.12-8.494-10.851-7.775-3.915.754-5.866-1.04-17.319-15.917-37.557-48.79-71.97-92.794-73.06-93.42-.679-.39-17.392 1.47-37.14 4.136-110.24 14.877-117.122 15.738-117.122 14.652 0-.388 1.154-3.467 2.565-6.843 4.852-11.613-.628-14.052-19.663-8.75-9.548 2.659-8.183-2.488 14.306-53.922 10.754-24.597 57.528-133.444 71.969-167.48 11.316-26.67 11.322-26.904 1.466-56.505-11.85-35.59-22.324-49.734-59.53-80.393-70.395-58.01-79.023-97.985-36.276-168.074 18.65-30.58 22.516-46.317 25.069-102.045 4.25-92.797 40.116-134.451 145.678-169.192 39.606-13.034 53.686-19.845 77.546-37.507 55.096-40.783 88.418-43.992 155.04-14.93 41.24 17.988 58.078 19.44 100.577 8.67 83.729-21.22 142.544 14.578 161.675 98.402 11.629 50.95 15.356 58.555 42.836 87.398 42.134 44.224 54.415 65.377 54.48 93.842l.046 19.663-7.38 15.388c-4.058 8.464-11.858 22.698-17.333 31.632-22.681 37.009-22.664 56.48.09 103.757 40.613 84.377 24.645 123.902-53.722 132.985-28.238 3.273-50.746 10.633-50.746 16.594 0 .881 18.953 45.611 42.117 99.4 23.165 53.79 45.004 104.724 48.533 113.187 3.528 8.464 9.197 21.394 12.596 28.734 6.06 13.084 7.459 18.299 4.9 18.273-.706-.007-6.284-.833-12.397-1.835-10.998-1.804-39.078-5.607-111.97-15.166-43.786-5.742-37.892-7.445-55.954 16.16a20750 20750 0 0 1-26.89 35.05c-6.873 8.934-21.652 28.362-32.842 43.173-23.455 31.044-21.615 29.947-27.96 16.67-5.23-10.94-5.882-11.419-11.11-8.154-4.975 3.107-6.44.822-20.543-32.026-55.71-129.762-64.507-149.608-66.31-149.608-1.635 0-9.719 16.935-17.955 37.616-8.972 22.53-68.206 159.686-69.672 161.326-.718.803-4.202-2.422-7.744-7.166" style="fill:#cfcfce;stroke-width:1.70981"/><path d="M369.06 940.172c-21.958-28.49-43.002-54.932-46.763-58.763-3.762-3.83-8.763-9.38-11.114-12.335l-4.274-5.37-25.648 4.06c-14.106 2.235-33.34 4.945-42.745 6.023s-26.716 3.388-38.47 5.134c-11.756 1.746-25.22 3.201-29.922 3.235s-12.204.552-16.671 1.153c-11.998 1.615-16.292 14.08 40.967-118.915 18.826-43.728 38.519-89.598 43.761-101.932l9.532-22.426-3.184-12.625c-12.493-49.55-22.753-65.52-64.146-99.845-71.481-59.273-80.558-97.947-39.013-166.219 19.741-32.44 23.985-48.894 26.141-101.347 2.83-68.831 17.397-98.961 65.876-136.255 16.315-12.55 39.013-22.629 84.26-37.412 35.936-11.74 47.869-17.655 73.897-36.627C447.05 9.25 478.15 6.275 544.992 35.028c43.128 18.552 58.442 19.808 102.884 8.44 81.48-20.843 131.878 8.513 147.249 85.77 8.404 42.246 21.453 65.517 58.667 104.63 49.917 52.463 51.31 73.81 9.378 143.64-17.903 29.812-18.604 49.976-2.9 83.395 47.605 101.305 32.3 142.877-55.676 151.231-41.177 3.91-44.95 7.403-34.656 32.09 15.403 36.938 36.822 87.217 43.91 103.072 3.993 8.934 12.458 28.554 18.811 43.6s15.196 35.436 19.651 45.31c18.943 41.982 20.196 49.6 8.15 49.555-11.893-.043-37.611-2.836-61.98-6.73-30.055-4.803-83.765-12.066-89.152-12.056-4.909.009-13.151 9.519-49.319 56.902-9.887 12.955-21.687 28.343-26.222 34.197-4.535 5.853-10.825 14.105-13.978 18.337-15.405 20.672-18.507 18.934-35.077-19.663-60.349-140.561-62.802-146.082-66.925-150.623-1.787-1.969-5.397-8.67-8.022-14.892l-4.773-11.312-3.91 8.907c-9.804 22.327-27.033 62.442-36.872 85.85-5.93 14.105-14.295 33.488-18.591 43.072s-10.185 23.433-13.087 30.777c-7.34 18.568-19.244 42.2-21.6 42.877-1.082.311-19.933-22.743-41.891-51.232" style="fill:#dbcbab;stroke-width:1.70981"/><path d="M369.06 940.172c-21.958-28.49-43.002-54.932-46.763-58.763-3.762-3.83-8.763-9.38-11.114-12.335l-4.274-5.37-25.648 4.06c-14.106 2.235-33.34 4.945-42.745 6.023s-26.716 3.388-38.47 5.134c-11.756 1.746-25.22 3.201-29.922 3.235s-12.204.552-16.671 1.153c-10.25 1.38-10.258 1.116-.687-21.692 10.977-26.157 80.43-187.862 88.544-206.153 7.878-17.759 7.896-17.192-1.474-47.517-10.675-34.551-22.114-50.488-56.889-79.254-72.658-60.104-82.335-98.657-41.577-165.636 20.104-33.038 24.17-47.73 26.24-94.814 4.597-104.58 35.193-142.121 146.677-179.972 45.517-15.454 47.87-16.6 77.257-37.669 55.86-40.046 87.693-43.318 151.217-15.544 40.84 17.857 58.982 20.15 94.141 11.902A7719 7719 0 0 1 666.824 40c64.514-14.787 113.781 20.436 127.37 91.062 7.845 40.768 19.584 61.646 55.997 99.59 51.252 53.406 53.448 76.3 13.679 142.65-20.602 34.37-21.473 53.036-4.185 89.626 44.628 94.451 31.874 137.317-43.442 146.007-29.026 3.348-57.09 10.612-57.09 14.775 0 2.978 31.39 77.59 69.26 164.622 30.99 71.223 39.275 92.197 37.229 94.244-1.837 1.836-17.186.321-62.888-6.208-63.856-9.123-91.554-12.805-96.329-12.805-5.15 0-18.17 15.08-51.67 59.844-5.982 7.993-13.984 18.445-17.784 23.226s-11.46 14.586-17.023 21.789c-18.164 23.52-16.839 24.033-32.333-12.529-6.177-14.576-17.106-39.967-24.286-56.424a17560 17560 0 0 1-23.016-53.004c-10.342-23.968-18.854-42.233-23.107-49.584-1.36-2.351-4.145-8.122-6.188-12.824l-3.716-8.549-5.096 11.114c-6.282 13.701-23.611 53.881-37.976 88.055-5.93 14.106-14.295 33.489-18.591 43.073s-10.185 23.433-13.087 30.777c-7.34 18.568-19.244 42.2-21.6 42.877-1.082.311-19.933-22.743-41.891-51.232" style="fill:#b2acc9;stroke-width:1.70981"/><path d="M401.915 981.93c-9.609-13.226-75.536-98.206-81.217-104.688-2.885-3.291-6.82-8.164-8.744-10.827l-3.498-4.843-36.68 5.16c-91.663 12.892-126.445 17-126.445 14.935 0-.579.77-2.388 1.71-4.02.94-1.634 4.294-9.125 7.453-16.648s17.877-41.762 32.706-76.087c14.83-34.324 31.935-74.334 38.013-88.91 6.079-14.576 13.77-32.965 17.094-40.865 6.817-16.203 6.741-17.659-2.443-47.19-10.777-34.653-22.159-50.501-56.917-79.254-72.658-60.104-82.335-98.657-41.577-165.636 20.104-33.038 24.17-47.73 26.24-94.814 4.597-104.58 35.193-142.121 146.677-179.972 45.517-15.454 47.87-16.6 77.257-37.669 55.86-40.046 87.693-43.318 151.217-15.544 40.84 17.857 58.982 20.15 94.141 11.902A7719 7719 0 0 1 666.824 40c64.514-14.787 113.781 20.436 127.37 91.062 7.845 40.768 19.584 61.646 55.997 99.59 51.252 53.406 53.448 76.3 13.679 142.65-20.602 34.37-21.473 53.036-4.185 89.626 44.628 94.451 31.874 137.317-43.442 146.007-29.026 3.348-57.09 10.612-57.09 14.775 0 2.978 31.39 77.59 69.26 164.622 30.99 71.223 39.275 92.197 37.229 94.244-1.837 1.836-17.186.321-62.888-6.208-63.856-9.123-91.554-12.805-96.329-12.805-5.15 0-18.17 15.08-51.67 59.844-5.982 7.993-13.984 18.445-17.784 23.226s-11.46 14.586-17.023 21.789c-18.164 23.52-16.839 24.033-32.333-12.529-6.177-14.576-17.106-39.967-24.286-56.424a17560 17560 0 0 1-23.016-53.004c-10.342-23.968-18.854-42.233-23.107-49.584-1.36-2.351-4.083-8.004-6.052-12.561-5.33-12.338-4.353-14.134-47.704 87.792-30.597 71.94-47.269 110.535-49.486 114.558-2.627 4.766-6.152 3.38-12.05-4.74" style="fill:#d3aa9a;stroke-width:1.70981"/><path d="M401.915 981.93c-9.609-13.226-75.536-98.206-81.217-104.688-2.885-3.291-6.82-8.164-8.744-10.827l-3.498-4.843-36.68 5.16c-91.663 12.892-126.445 17-126.445 14.935 0-.579.77-2.388 1.71-4.02.94-1.634 4.294-9.125 7.453-16.648s17.877-41.762 32.706-76.087c14.83-34.324 31.927-74.334 37.994-88.91a166662 166662 0 0 1 16.376-39.326c2.938-7.053 5.989-13.713 6.779-14.801 1.642-2.263-3.436-23.5-10.054-42.047-10.9-30.544-24.962-48.907-56.978-74.401-68.904-54.869-78.683-95.61-38.864-161.923 21.024-35.014 24.58-48.315 26.752-100.084 4.124-98.256 37.24-138.03 144.607-173.675 40.611-13.483 53.831-19.913 78.587-38.224 52.366-38.731 87.377-42.79 146.19-16.948 47.045 20.673 66.032 22.577 110.282 11.06 80.108-20.848 126.987 6.361 142.94 82.968 9.529 45.75 18.792 62.834 53.518 98.69 52.322 54.026 56.55 78.948 22.873 134.813-28.465 47.216-29.288 61.504-6.354 110.242 41.354 87.88 26.194 126.346-53.48 135.691-33.58 3.939-52.188 10.768-50.403 18.499 1.084 4.695 6.033 16.404 52.125 123.325 45.282 105.043 53.362 124.484 53.362 128.391 0 3.477-19.659 2.759-47.874-1.75-36.18-5.782-105.464-14.77-110.207-14.298-5.366.535-8.028 3.636-48.857 56.928a179490 179490 0 0 1-30.744 40.116c-25.66 33.469-22.497 33.747-38.182-3.355-6.162-14.576-17.09-39.967-24.286-56.424-7.195-16.456-16.373-37.615-20.395-47.02-28.514-66.666-36.805-83.906-36.805-76.529 0 2.014-.748 4.123-1.661 4.687-2.238 1.383-10.604 20.06-40.99 91.505-30.598 71.94-47.27 110.535-49.487 114.558-2.627 4.766-6.152 3.38-12.05-4.74" style="fill:#b0b0b0;stroke-width:1.70981"/><path d="M368.342 937.583c-22.405-28.956-43.631-56.11-47.17-60.341-3.537-4.232-7.83-9.49-9.54-11.687l-3.11-3.992-36.713 5.164c-105.13 14.787-124.791 16.938-124.715 13.643.06-2.635 3.661-11.21 40.086-95.458 14.84-34.324 32.292-75.103 38.782-90.62 6.49-15.516 14.485-34.179 17.768-41.471l5.968-13.26-3.489-13.667c-12.203-47.793-26.457-69.861-64.892-100.467-68.904-54.869-78.683-95.61-38.864-161.923 21.024-35.014 24.58-48.315 26.752-100.084 4.124-98.256 37.24-138.03 144.607-173.675 40.611-13.483 53.831-19.913 78.587-38.224 52.366-38.731 87.377-42.79 146.19-16.948 47.045 20.673 66.032 22.577 110.282 11.06 80.108-20.848 126.987 6.361 142.94 82.968 9.529 45.75 18.792 62.834 53.518 98.69 52.322 54.026 56.55 78.948 22.873 134.813-28.465 47.216-29.288 61.504-6.354 110.242 41.354 87.88 26.194 126.346-53.48 135.691-33.58 3.939-52.188 10.768-50.403 18.499 1.084 4.695 6.033 16.404 52.125 123.325 45.282 105.043 53.362 124.484 53.362 128.391 0 3.477-19.659 2.759-47.874-1.75-36.18-5.782-105.464-14.77-110.207-14.298-5.366.535-8.028 3.636-48.857 56.928a179490 179490 0 0 1-30.744 40.116c-25.66 33.469-22.497 33.747-38.182-3.355-6.162-14.576-17.079-39.967-24.26-56.424-7.18-16.456-17.55-40.308-23.043-53.004-23.018-53.19-31.765-72.16-33.261-72.134-1.53.027-11.332 20.835-21.496 45.632-18.45 45.01-72.985 169.111-74.543 169.63-1.049.35-20.239-23.055-42.643-52.01" style="fill:#efc347;stroke-width:1.70981"/><path d="M368.342 937.583c-22.405-28.956-43.631-56.11-47.17-60.341-3.537-4.232-7.83-9.49-9.54-11.687l-3.11-3.992-36.713 5.164c-105.13 14.787-124.791 16.938-124.715 13.643.06-2.635 3.661-11.21 40.086-95.458 14.84-34.324 32.292-75.103 38.782-90.62 6.49-15.516 14.485-34.179 17.768-41.471l5.968-13.26-3.489-13.667c-12.203-47.793-26.457-69.861-64.892-100.467-68.904-54.869-78.683-95.61-38.864-161.923 21.024-35.014 24.58-48.315 26.752-100.084 4.124-98.256 37.24-138.03 144.607-173.675 40.611-13.483 53.831-19.913 78.587-38.224 52.366-38.731 87.377-42.79 146.19-16.948 47.045 20.673 66.032 22.577 110.282 11.06 80.108-20.848 126.987 6.361 142.94 82.968 9.529 45.75 18.792 62.834 53.518 98.69 52.322 54.026 56.55 78.948 22.873 134.813-28.465 47.216-29.288 61.504-6.354 110.242 41.354 87.88 26.194 126.346-53.48 135.691-22.572 2.648-40.338 7.175-47.236 12.036-4.906 3.458-4.713 4.462 5.507 28.694 4.313 10.226 7.348 19.46 6.744 20.518-.605 1.059-.45 1.335.343.614 1.861-1.691 6.288 8.73 4.808 11.319-.616 1.078-.507 1.406.242.729 2-1.806 84.676 189.864 84.676 196.305 0 3.65-19.645 2.723-53.004-2.5-11.755-1.84-39.838-5.816-62.408-8.835-51.842-6.934-41.718 3.933-79.505-85.337-10.937-25.838-11.448-26.338-19.608-19.174-33.524 29.434-75.753 36.047-124.017 19.42-5.173-1.782-10.556-3.548-11.963-3.924s-3.453-1.827-4.546-3.224c-2.16-2.76-3.088-.984-18.744 35.881-4.193 9.874-11.823 27.571-16.956 39.326s-20.693 47.856-34.58 80.226c-13.885 32.369-26.1 59.138-27.145 59.486s-20.23-23.059-42.634-52.014" style="fill:#e08f61;stroke-width:1.70981"/><path d="M368.342 937.583c-22.405-28.956-43.631-56.11-47.17-60.341-3.537-4.232-7.83-9.49-9.54-11.687l-3.11-3.992-36.713 5.164c-105.13 14.787-124.791 16.938-124.715 13.643.06-2.635 3.661-11.21 40.086-95.458 14.84-34.324 32.292-75.103 38.782-90.62 6.49-15.516 14.536-34.289 17.88-41.717l6.08-13.504-3.681-14.707c-12.08-48.256-25.115-67.473-70.881-104.496-63.13-51.07-71.435-92.213-31.824-157.653 19.974-33 24.748-52.044 26.49-105.677 2.94-90.464 37.658-130.327 145.387-166.93 42.723-14.516 50.986-18.514 75.909-36.726C447.368 11.926 477.068 8.797 542.999 36.9c44.088 18.793 61.533 20.39 104.162 9.535C730.154 25.304 777 52.463 791.67 130.214c8.51 45.105 18.505 62.089 64.5 109.607 42.08 43.475 43.502 69.853 7.002 129.933-22.676 37.325-23.627 55.854-4.9 95.429 41.667 88.047 31.24 130.87-34.144 140.234-70.87 10.149-72.44 11.083-61.975 36.861 8.72 21.479 37.178 88.786 46.571 110.148 3.929 8.933 11.376 26.245 16.55 38.47 5.175 12.226 12.884 29.922 17.132 39.326 10.03 22.205 17.614 41.94 17.621 45.855.007 3.576-15.061 3.044-42.739-1.507-20.573-3.383-89.426-12.77-102.104-13.92-14.66-1.33-11.41 4.178-46.648-79.07-10.937-25.838-11.448-26.338-19.608-19.174-30.127 26.452-73.82 35.352-113.207 23.06-24.54-7.658-23.616-6.876-29.384-24.886-2.772-8.657-5.882-16.021-6.912-16.364-2.951-.984-2.254 1.878 3.4 13.962l5.273 11.266-5.223 11.054c-2.872 6.079-8.737 19.37-13.032 29.534s-12.008 28.098-17.14 39.853-20.694 47.856-34.58 80.226-26.102 59.138-27.146 59.486-20.23-23.059-42.634-52.014m260.951-288.645c9.1-4.705 5.477-9.085-4.178-5.051-7.489 3.129-7.976 5.787-1.379 7.525.282.074 2.783-1.04 5.557-2.474m51.637-31.245c7.123-6.668 6.567-11.615-.855-7.607-10.506 5.673-13.747 8.636-12.63 11.548 1.402 3.652 7.18 1.963 13.485-3.94m42.083-40.517c5.665-6.452 6.931-11.12 3.017-11.12-2.469 0-16.46 14.26-16.46 16.775 0 5.52 5.759 3.097 13.443-5.655m33.308-54.3c-1.222-1.976-3.966 1.912-3.926 5.564.022 1.973.595 1.816 2.484-.679 1.35-1.784 2-3.982 1.442-4.885m-600.557-98.168c2.11-10.285-1.255-19.189-7.308-19.345-4.543-.116-6.305 34.477-2.103 41.276 1.823 2.95 6.584-8.145 9.411-21.93m24.347-48.245c5.23-9.61 5.605-13.311 1.884-18.623-4.142-5.914-6.687-4.614-12.568 6.42l-5.447 10.22 3.82 5.168c5.192 7.022 7.012 6.551 12.31-3.185m19.31-56.072c2.798-11.151 1.207-45.81-2.234-48.666-1.25-1.037-2.272-1.214-2.273-.393-.001.82-1.198 11.77-2.66 24.334-2.485 21.36-2.468 23.053.267 26.075 3.962 4.378 5.54 4.069 6.9-1.35m17.53-116.087c6.15-12.873 6.212-13.272 2.635-16.849-9.349-9.349-22.294 12.79-15.34 26.236 3.62 7.001 5.563 5.566 12.705-9.387m37.48-45.937c8.584-8.126 8.486-10.038-.613-11.95-11.38-2.391-23.56 11.152-14.874 16.537 6.43 3.987 6.43 3.987 15.487-4.587m57.607-29.114c10.844-3.898 12.694-4.865 11.868-6.201-.502-.812-.08-3.03.937-4.931 3.369-6.295-21.432-1.848-37.424 6.711-4.798 2.568-.524 7.816 4.951 6.079 1.884-.598 3.425-.37 3.425.508 0 1.573 9.29.334 16.243-2.166m16.243-6.893a.857.857 0 0 0-.855-.855.857.857 0 0 0-.855.855c0 .47.385.855.855.855s.855-.385.855-.855m58.134-20.648c17.732-8.241 23.089-20.822 9.022-21.188-2.446-.064-27.841 15.338-27.807 16.864.219 9.673 4.94 10.76 18.785 4.324m198.941-22.729c2.267-.891-1.98-2.814-14.927-6.76-9.953-3.032-19.457-5.993-21.121-6.58-8.754-3.083 2.036 3.167 13.217 7.657 19.53 7.842 18.19 7.509 22.831 5.683m86.71-5.413c4.748-2.54 4.164-5.655-.826-4.402-2.381.597-4.4.238-4.762-.849-.679-2.037-15.042 1.388-15.042 3.587 0 3.766 14.515 4.937 20.63 1.664m26.153-7.634c.795-2.071-.567-2.526-7.084-2.366-4.437.109-6.529.568-4.648 1.02 1.88.453 4.15 1.518 5.044 2.367 2.454 2.333 5.584 1.855 6.688-1.02M459.679 55.65c5.308-2.775 9.958-4.111 12.025-3.455 4.354 1.382 15.59-3.299 15.59-6.494 0-6.892-39.784-2.631-49.469 5.298l-3.627 2.97 4.342 4.65c4.859 5.204 5.747 5.08 21.14-2.969" style="fill:#e57554;stroke-width:1.70981"/><path d="M368.342 937.583c-22.405-28.956-43.631-56.11-47.17-60.341-3.537-4.232-7.83-9.49-9.54-11.687l-3.11-3.992-36.713 5.164c-105.13 14.787-124.791 16.938-124.715 13.643.06-2.635 3.661-11.21 40.086-95.458 14.84-34.324 32.292-75.103 38.782-90.62 6.49-15.516 14.536-34.289 17.88-41.717l6.08-13.504-3.681-14.707c-12.08-48.256-25.115-67.473-70.881-104.496-63.13-51.07-71.435-92.213-31.824-157.653 19.974-33 24.748-52.044 26.49-105.677 2.94-90.464 37.658-130.327 145.387-166.93 42.723-14.516 50.986-18.514 75.909-36.726C447.368 11.926 477.068 8.797 542.999 36.9c44.088 18.793 61.533 20.39 104.162 9.535C730.154 25.304 777 52.463 791.67 130.214c8.51 45.105 18.505 62.089 64.5 109.607 42.08 43.475 43.502 69.853 7.002 129.933-22.676 37.325-23.627 55.854-4.9 95.429 41.667 88.047 31.24 130.87-34.144 140.234-70.87 10.149-72.44 11.083-61.975 36.861 8.72 21.479 37.178 88.786 46.571 110.148 3.929 8.933 11.376 26.245 16.55 38.47 5.175 12.226 12.884 29.922 17.132 39.326 10.03 22.205 17.614 41.94 17.621 45.855.007 3.576-15.061 3.044-42.739-1.507-20.573-3.383-89.426-12.77-102.104-13.92-14.66-1.33-11.41 4.178-46.648-79.07-10.937-25.838-11.448-26.338-19.608-19.174-30.127 26.452-73.82 35.352-113.207 23.06-24.415-7.619-23.594-6.937-28.997-24.068-4.65-14.742-9.17-23.233-9.17-17.225 0 1.507 2.372 7.809 5.272 14.005l5.272 11.266-5.223 11.053c-2.872 6.08-8.737 19.37-13.032 29.535s-12.008 28.098-17.14 39.853-20.694 47.856-34.58 80.226-26.102 59.138-27.146 59.486-20.23-23.059-42.634-52.014m186.802-261.33c164.323-24.4 276.99-201.45 226.341-355.682-8.898-27.096-10.24-25.506-3.718 4.402 53.889 247.106-220.255 432.816-430.43 291.581-23.968-16.106-25.095-16.558-13.52-5.416 29.751 28.64 88.51 56.344 134.669 63.494 9.874 1.53 19.107 3.027 20.518 3.328 7.91 1.688 50.715.584 66.14-1.707m-394.42-205.521c-9.165-24.12-3.932-51.306 15.384-79.931 9.744-14.44 12.962-21.32 20.51-43.851 8.108-24.2 8.766-28.747 10.232-70.707 1.524-43.61 2.043-46.071 15.27-72.369 15.94-31.69 46.866-55.26 92.289-70.336 57.15-18.968 80.713-29.069 93.653-40.145C456.334 52.075 488.84 46.98 546.57 71.678c49.15 21.028 74.061 23.671 117.69 12.486 38.34-9.829 57.77-10.126 77.308-1.181 11.345 5.193 11.063 2.628-.772-7.032-21.151-17.265-47.706-19.849-91.07-8.864-47.673 12.077-65.722 10.007-123.291-14.144-44.186-18.535-71.721-18.074-100.694 1.688C369.28 93.14 358.148 99 319.732 110.418c-90.464 26.889-124.376 65.285-128.336 145.307-3.203 64.712-4.72 71.166-26.115 111.138-25.93 48.443-24.235 44.105-24.143 61.755.09 17.243 5.542 31.897 16.516 44.396 6.603 7.52 6.752 7.41 3.07-2.282" style="fill:#8e8e8e;stroke-width:1.70981"/><path d="M368.367 937.614c-21.577-27.92-41.924-53.93-45.215-57.8-3.292-3.868-7.91-9.56-10.265-12.648l-4.281-5.615-36.755 5.17c-105.163 14.792-124.833 16.944-124.757 13.65.06-2.636 3.661-11.21 40.086-95.459 14.84-34.324 32.262-75.103 38.714-90.62 6.452-15.516 14.553-33.918 18.002-40.891l6.27-12.68-3.765-15.532c-11.718-48.342-25.061-68.125-71.041-105.321-63.13-51.07-71.435-92.213-31.824-157.653 19.974-33 24.748-52.044 26.49-105.677 2.94-90.464 37.658-130.327 145.387-166.93 42.723-14.516 50.986-18.514 75.909-36.726C447.368 11.926 477.068 8.797 542.999 36.9c44.088 18.793 61.533 20.39 104.162 9.535C730.154 25.304 777 52.463 791.67 130.214c8.51 45.105 18.505 62.089 64.5 109.607 42.08 43.475 43.502 69.853 7.002 129.933-22.676 37.325-23.627 55.854-4.9 95.429 41.667 88.047 31.24 130.87-34.144 140.234-70.87 10.149-72.44 11.083-61.975 36.861 8.72 21.479 37.178 88.786 46.571 110.148 3.929 8.933 11.376 26.245 16.55 38.47 5.175 12.226 12.884 29.922 17.132 39.326 10.03 22.205 17.614 41.94 17.621 45.855.007 3.576-15.061 3.044-42.739-1.507-20.573-3.383-89.426-12.77-102.104-13.92-14.66-1.33-11.41 4.178-46.648-79.07-10.937-25.838-11.448-26.338-19.608-19.174-30.127 26.452-73.82 35.352-113.207 23.06-24.415-7.619-23.594-6.937-28.997-24.068-4.664-14.786-9.17-23.232-9.17-17.186 0 1.527 2.307 7.655 5.128 13.617 5.358 11.327 6.235 15.114 3.501 15.114-.896 0-2.368 2.501-3.27 5.557s-5.659 14.79-10.568 26.075c-19.128 43.963-32.799 75.637-55.533 128.663-17.213 40.15-24.398 55.142-26.427 55.142-1.631 0-19.044-21.039-42.017-50.766m186.777-261.36c164.323-24.4 276.99-201.45 226.341-355.683-8.898-27.096-10.24-25.506-3.718 4.402 53.889 247.106-220.255 432.816-430.43 291.581-23.968-16.106-25.095-16.558-13.52-5.416 29.751 28.64 88.51 56.344 134.669 63.494 9.874 1.53 19.107 3.027 20.518 3.328 7.91 1.688 50.715.584 66.14-1.707m-394.42-205.522c-9.165-24.12-3.932-51.306 15.384-79.931 9.744-14.44 12.962-21.32 20.51-43.851 8.108-24.2 8.766-28.747 10.232-70.707 1.524-43.61 2.043-46.071 15.27-72.369 15.94-31.69 46.866-55.26 92.289-70.336 57.15-18.968 80.713-29.069 93.653-40.145C456.334 52.075 488.84 46.98 546.57 71.678c49.15 21.028 74.061 23.671 117.69 12.486 38.34-9.829 57.77-10.126 77.308-1.181 11.345 5.193 11.063 2.628-.772-7.032-21.151-17.265-47.706-19.849-91.07-8.864-47.673 12.077-65.722 10.007-123.291-14.144-44.186-18.535-71.721-18.074-100.694 1.688C369.28 93.14 358.148 99 319.732 110.418c-90.464 26.889-124.376 65.285-128.336 145.307-3.203 64.712-4.72 71.166-26.115 111.138-25.93 48.443-24.235 44.105-24.143 61.755.09 17.243 5.542 31.897 16.516 44.396 6.603 7.52 6.752 7.41 3.07-2.282" style="fill:#8479a7;stroke-width:1.70981"/><path d="M370.067 937.68c-34.739-44.906-43.976-56.62-58.213-73.817l-3.604-4.353-39.997 5.525c-21.997 3.038-48.075 6.681-57.949 8.095-24.823 3.555-60.386 7.559-61.069 6.876-.749-.75 7.314-19.989 40.567-96.804 15.267-35.265 31.934-74.12 37.038-86.345a17837 17837 0 0 1 15.047-35.93c8.436-20.05 8.512-20.842 3.707-38.893-12.804-48.108-24.573-65.228-70.234-102.166-63.13-51.07-71.435-92.213-31.824-157.653 19.974-33 24.748-52.044 26.49-105.677 2.94-90.464 37.658-130.327 145.387-166.93 42.723-14.516 50.986-18.514 75.909-36.726C447.368 11.926 477.068 8.797 542.999 36.9c44.088 18.793 61.533 20.39 104.162 9.535C730.154 25.304 777 52.463 791.67 130.214c8.51 45.105 18.505 62.089 64.5 109.607 42.08 43.475 43.502 69.853 7.002 129.933-22.676 37.325-23.627 55.854-4.9 95.429 41.667 88.047 31.24 130.87-34.144 140.234-70.87 10.149-72.44 11.083-61.975 36.861 8.72 21.479 37.178 88.786 46.571 110.148 3.929 8.933 11.376 26.245 16.55 38.47 5.175 12.226 12.884 29.922 17.132 39.326 10.03 22.205 17.614 41.94 17.621 45.855.007 3.576-15.061 3.044-42.739-1.507-20.573-3.383-89.426-12.77-102.104-13.92-14.66-1.33-11.41 4.178-46.648-79.07-10.937-25.838-11.448-26.338-19.608-19.174-30.127 26.452-73.82 35.352-113.207 23.06-24.415-7.619-23.594-6.937-28.997-24.068-4.664-14.786-9.17-23.232-9.17-17.186 0 1.527 2.307 7.655 5.128 13.617 5.423 11.464 6.239 15.114 3.377 15.114-1.692 0-10.295 17.393-17.337 35.052-1.876 4.702-8.267 19.705-14.202 33.34a9680 9680 0 0 0-20.662 47.876 66737 66737 0 0 1-20.864 48.73c-6.047 14.105-13.325 31.225-16.174 38.043-6.63 15.871-1.747 19.873-46.752-38.304m185.077-261.427c164.323-24.4 276.99-201.45 226.341-355.682-8.898-27.096-10.24-25.506-3.718 4.402 53.889 247.106-220.255 432.816-430.43 291.581-23.968-16.106-25.095-16.558-13.52-5.416 29.751 28.64 88.51 56.344 134.669 63.494 9.874 1.53 19.107 3.027 20.518 3.328 7.91 1.688 50.715.584 66.14-1.707m-394.42-205.521c-9.165-24.12-3.932-51.306 15.384-79.931 9.744-14.44 12.962-21.32 20.51-43.851 8.108-24.2 8.766-28.747 10.232-70.707 1.524-43.61 2.043-46.071 15.27-72.369 15.94-31.69 46.866-55.26 92.289-70.336 57.15-18.968 80.713-29.069 93.653-40.145C456.334 52.075 488.84 46.98 546.57 71.678c49.15 21.028 74.061 23.671 117.69 12.486 38.34-9.829 57.77-10.126 77.308-1.181 11.345 5.193 11.063 2.628-.772-7.032-21.151-17.265-47.706-19.849-91.07-8.864-47.673 12.077-65.722 10.007-123.291-14.144-44.186-18.535-71.721-18.074-100.694 1.688C369.28 93.14 358.148 99 319.732 110.418c-90.464 26.889-124.376 65.285-128.336 145.307-3.203 64.712-4.72 71.166-26.115 111.138-25.93 48.443-24.235 44.105-24.143 61.755.09 17.243 5.542 31.897 16.516 44.396 6.603 7.52 6.752 7.41 3.07-2.282" style="fill:#d8a229;stroke-width:1.70981"/><path d="M370.067 937.68c-34.739-44.906-43.976-56.62-58.213-73.817l-3.604-4.353-39.997 5.525c-21.997 3.038-48.075 6.681-57.949 8.095-24.823 3.555-60.386 7.559-61.069 6.876-.749-.75 7.314-19.989 40.567-96.804 15.267-35.265 31.934-74.12 37.038-86.345a17837 17837 0 0 1 15.047-35.93c8.436-20.05 8.512-20.842 3.707-38.893-12.804-48.108-24.573-65.228-70.234-102.166-63.13-51.07-71.435-92.213-31.824-157.653 19.974-33 24.748-52.044 26.49-105.677 2.94-90.464 37.658-130.327 145.387-166.93 42.723-14.516 50.986-18.514 75.909-36.726C447.368 11.926 477.068 8.797 542.999 36.9c44.088 18.793 61.533 20.39 104.162 9.535C730.154 25.304 777 52.463 791.67 130.214c8.51 45.105 18.505 62.089 64.5 109.607 42.08 43.475 43.502 69.853 7.002 129.933-22.676 37.325-23.627 55.854-4.9 95.429 41.667 88.047 31.24 130.87-34.144 140.234-39.443 5.648-47.155 7.113-55.835 10.606-13.29 5.348-13.959 6.962-8.518 20.562 2.48 6.199 4.51 11.675 4.51 12.168 0 .494-6.438 5.925-14.306 12.07-15.127 11.81-44.701 41.652-65.462 66.05-11.178 13.137-24.33 25.553-27.067 25.553-.565 0-3.27-5.002-6.013-11.114-6-13.373-4.943-13.285-19.45-1.609-35.786 28.805-76.804 32.698-118.424 11.238-17.882-9.22-18.36-8.919-10.881 6.888 5.423 11.464 6.239 15.114 3.377 15.114-1.692 0-10.295 17.393-17.337 35.052-1.876 4.702-8.267 19.705-14.202 33.34a9680 9680 0 0 0-20.662 47.876 66737 66737 0 0 1-20.864 48.73c-6.047 14.105-13.325 31.225-16.174 38.043-6.63 15.871-1.747 19.873-46.752-38.304m185.077-261.427c164.323-24.4 276.99-201.45 226.341-355.682-8.898-27.096-10.24-25.506-3.718 4.402 53.889 247.106-220.255 432.816-430.43 291.581-23.968-16.106-25.095-16.558-13.52-5.416 29.751 28.64 88.51 56.344 134.669 63.494 9.874 1.53 19.107 3.027 20.518 3.328 7.91 1.688 50.715.584 66.14-1.707m-394.42-205.521c-9.165-24.12-3.932-51.306 15.384-79.931 9.744-14.44 12.962-21.32 20.51-43.851 8.108-24.2 8.766-28.747 10.232-70.707 1.524-43.61 2.043-46.071 15.27-72.369 15.94-31.69 46.866-55.26 92.289-70.336 57.15-18.968 80.713-29.069 93.653-40.145C456.334 52.075 488.84 46.98 546.57 71.678c49.15 21.028 74.061 23.671 117.69 12.486 38.34-9.829 57.77-10.126 77.308-1.181 11.345 5.193 11.063 2.628-.772-7.032-21.151-17.265-47.706-19.849-91.07-8.864-47.673 12.077-65.722 10.007-123.291-14.144-44.186-18.535-71.721-18.074-100.694 1.688C369.28 93.14 358.148 99 319.732 110.418c-90.464 26.889-124.376 65.285-128.336 145.307-3.203 64.712-4.72 71.166-26.115 111.138-25.93 48.443-24.235 44.105-24.143 61.755.09 17.243 5.542 31.897 16.516 44.396 6.603 7.52 6.752 7.41 3.07-2.282" style="fill:#b26a55;stroke-width:1.70981"/><path d="M370.067 937.68c-34.739-44.906-43.976-56.62-58.213-73.817l-3.604-4.353-39.997 5.525c-21.997 3.038-48.075 6.681-57.949 8.095-24.01 3.438-60.378 7.567-61.017 6.927-.7-.7 5.73-16.804 16.144-40.43 18.967-43.03 67.086-155.395 71.025-165.853 2.302-6.112 6.688-16.39 9.745-22.838l5.56-11.725-3.863-14.777c-13.195-50.48-24.077-66.647-70.935-105.383-64.011-52.915-71.645-90.918-31.555-157.086 18.73-30.912 25.57-56.12 25.57-94.213 0-69.002 16.389-104.327 65.73-141.679 13.802-10.447 36.622-20.557 77.895-34.509 43.139-14.582 52.745-19.287 79.173-38.776 53.365-39.352 85.094-42.117 151.827-13.23 41.197 17.833 59.442 19.178 104.543 7.708 79.303-20.17 124.324 6.644 139.89 83.315 9.483 46.714 17.848 61.446 58.979 103.86 48.106 49.61 50.213 71.657 12.824 134.212-24.396 40.814-24.658 56.112-1.8 105.073 40.856 87.51 26.368 122.837-54.315 132.44-23.103 2.749-41.084 7.861-47.717 13.566l-4.614 3.97 4.352 9.22c7.917 16.774 8.312 15.344-7.699 27.846-15.186 11.859-44.738 41.67-65.53 66.106-11.178 13.136-24.33 25.552-27.067 25.552-.565 0-3.27-5.002-6.013-11.114-6-13.373-4.943-13.285-19.45-1.609-27.058 21.78-59.425 29.627-91.25 22.124-10.585-2.496-40.21-16.231-42.298-19.612-5.325-8.615-4.71.475.894 13.203l6.586 14.96-6.936 14.52c-3.814 7.986-8.45 18.373-10.303 23.083-1.852 4.71-8.225 19.72-14.16 33.355a9680 9680 0 0 0-20.662 47.875 66737 66737 0 0 1-20.864 48.73c-6.047 14.105-13.325 31.225-16.174 38.043-6.63 15.871-1.747 19.873-46.752-38.304m185.077-261.427c164.323-24.4 276.99-201.45 226.341-355.682-8.898-27.096-10.24-25.506-3.718 4.402 53.889 247.106-220.255 432.816-430.43 291.581-23.968-16.106-25.095-16.558-13.52-5.416 29.751 28.64 88.51 56.344 134.669 63.494 9.874 1.53 19.107 3.027 20.518 3.328 7.91 1.688 50.715.584 66.14-1.707m-394.42-205.521c-9.165-24.12-3.932-51.306 15.384-79.931 9.744-14.44 12.962-21.32 20.51-43.851 8.108-24.2 8.766-28.747 10.232-70.707 1.524-43.61 2.043-46.071 15.27-72.369 15.94-31.69 46.866-55.26 92.289-70.336 57.15-18.968 80.713-29.069 93.653-40.145C456.334 52.075 488.84 46.98 546.57 71.678c49.15 21.028 74.061 23.671 117.69 12.486 38.34-9.829 57.77-10.126 77.308-1.181 11.345 5.193 11.063 2.628-.772-7.032-21.151-17.265-47.706-19.849-91.07-8.864-47.673 12.077-65.722 10.007-123.291-14.144-44.186-18.535-71.721-18.074-100.694 1.688C369.28 93.14 358.148 99 319.732 110.418c-90.464 26.889-124.376 65.285-128.336 145.307-3.203 64.712-4.72 71.166-26.115 111.138-25.93 48.443-24.235 44.105-24.143 61.755.09 17.243 5.542 31.897 16.516 44.396 6.603 7.52 6.752 7.41 3.07-2.282" style="fill:#bd841f;stroke-width:1.70981"/><path d="M370.067 937.68c-34.739-44.906-43.976-56.62-58.213-73.817l-3.604-4.353-39.997 5.525c-21.997 3.038-48.075 6.681-57.949 8.095-24.01 3.438-60.378 7.567-61.017 6.927-.7-.7 5.73-16.804 16.144-40.43 18.967-43.03 67.086-155.395 71.025-165.853 2.302-6.112 6.688-16.39 9.745-22.838l5.56-11.725-3.863-14.777c-13.195-50.48-24.077-66.647-70.935-105.383-64.011-52.915-71.645-90.918-31.555-157.086 18.73-30.912 25.57-56.12 25.57-94.213 0-69.002 16.389-104.327 65.73-141.679 13.802-10.447 36.622-20.557 77.895-34.509 43.139-14.582 52.745-19.287 79.173-38.776 53.365-39.352 85.094-42.117 151.827-13.23 41.197 17.833 59.442 19.178 104.543 7.708 79.303-20.17 124.324 6.644 139.89 83.315 9.483 46.714 17.848 61.446 58.979 103.86 48.106 49.61 50.213 71.657 12.824 134.212-24.396 40.814-24.658 56.112-1.8 105.073 40.856 87.51 26.368 122.837-54.315 132.44-23.96 2.85-41.188 7.914-48.736 14.324-3.04 2.582-13.992 10.975-24.336 18.65-18.036 13.383-35.363 30.556-65.796 65.208-51.272 58.383-96.417 71.201-154.75 43.942-9.22-4.308-17.347-7.833-18.062-7.833s1.665 6.732 5.288 14.96l6.586 14.962-6.936 14.52c-3.814 7.985-8.45 18.372-10.303 23.082-1.852 4.71-8.225 19.72-14.16 33.355a9680 9680 0 0 0-20.662 47.875 66737 66737 0 0 1-20.864 48.73c-6.047 14.105-13.325 31.225-16.174 38.043-6.63 15.871-1.747 19.873-46.752-38.304m185.077-261.427c164.323-24.4 276.99-201.45 226.341-355.682-8.898-27.096-10.24-25.506-3.718 4.402 53.889 247.106-220.255 432.816-430.43 291.581-23.968-16.106-25.095-16.558-13.52-5.416 29.751 28.64 88.51 56.344 134.669 63.494 9.874 1.53 19.107 3.027 20.518 3.328 7.91 1.688 50.715.584 66.14-1.707m-394.42-205.521c-9.165-24.12-3.932-51.306 15.384-79.931 9.744-14.44 12.962-21.32 20.51-43.851 8.108-24.2 8.766-28.747 10.232-70.707 1.524-43.61 2.043-46.071 15.27-72.369 15.94-31.69 46.866-55.26 92.289-70.336 57.15-18.968 80.713-29.069 93.653-40.145C456.334 52.075 488.84 46.98 546.57 71.678c49.15 21.028 74.061 23.671 117.69 12.486 38.34-9.829 57.77-10.126 77.308-1.181 11.345 5.193 11.063 2.628-.772-7.032-21.151-17.265-47.706-19.849-91.07-8.864-47.673 12.077-65.722 10.007-123.291-14.144-44.186-18.535-71.721-18.074-100.694 1.688C369.28 93.14 358.148 99 319.732 110.418c-90.464 26.889-124.376 65.285-128.336 145.307-3.203 64.712-4.72 71.166-26.115 111.138-25.93 48.443-24.235 44.105-24.143 61.755.09 17.243 5.542 31.897 16.516 44.396 6.603 7.52 6.752 7.41 3.07-2.282" style="fill:#d45029;stroke-width:1.70981"/><path d="M370.067 937.68c-34.739-44.906-43.976-56.62-58.213-73.817l-3.604-4.353-39.997 5.525c-21.997 3.038-48.075 6.681-57.949 8.095-24.01 3.438-60.378 7.567-61.017 6.927-.7-.7 5.73-16.804 16.144-40.43 18.967-43.03 67.086-155.395 71.025-165.853 2.302-6.112 6.688-16.39 9.745-22.838l5.56-11.725-3.863-14.777c-13.195-50.48-24.077-66.647-70.935-105.383-64.011-52.915-71.645-90.918-31.555-157.086 18.73-30.912 25.57-56.12 25.57-94.213 0-69.002 16.389-104.327 65.73-141.679 13.802-10.447 36.622-20.557 77.895-34.509 43.139-14.582 52.745-19.287 79.173-38.776 53.365-39.352 85.094-42.117 151.827-13.23 41.197 17.833 59.442 19.178 104.543 7.708 79.303-20.17 124.324 6.644 139.89 83.315 9.483 46.714 17.848 61.446 58.979 103.86 48.106 49.61 50.213 71.657 12.824 134.212-24.396 40.814-24.658 56.112-1.8 105.073 40.856 87.51 26.368 122.837-54.315 132.44-23.96 2.85-41.188 7.914-48.736 14.324-3.04 2.582-13.992 10.975-24.336 18.65-18.036 13.383-35.363 30.556-65.796 65.208-51.131 58.222-97.424 71.457-153.791 43.97-21.478-10.474-21.471-10.478-13.733 7.1l6.586 14.96-6.936 14.52c-3.814 7.986-8.45 18.373-10.303 23.083-1.852 4.71-8.225 19.72-14.16 33.355a9680 9680 0 0 0-20.662 47.875 66737 66737 0 0 1-20.864 48.73c-6.047 14.105-13.325 31.225-16.174 38.043-6.63 15.871-1.747 19.873-46.752-38.304M583.16 739.437c25.396-7.464 51.253-28.257 82.99-66.738 7.857-9.525 17.185-19.817 20.73-22.87s12.986-11.805 20.98-19.45c25.998-24.864 60.104-40.01 100.122-44.462 60.836-6.77 69.182-30.987 35.163-102.038-26.952-56.291-25.704-84.337 5.912-132.84 28.145-43.179 24.677-66.077-15.966-105.411-39.002-37.747-51.608-60.632-63.501-115.287-14.032-64.48-47.828-83.28-117.3-65.249-46.603 12.096-74.979 9.152-123.084-12.77-43.642-19.888-74.373-19.31-105.535 1.983-53.307 36.425-65.427 42.75-105.649 55.138-93.294 28.732-125.915 67.026-128.981 151.412-2.097 57.693-4.137 66.36-24.551 104.298-23.198 43.11-23.979 44.796-25.144 54.283-3.8 30.928 11.602 56.497 52.568 87.267 47.597 35.75 59.929 56.457 79.125 132.87 21.233 84.514 36.147 95.524 97.423 71.915 58.057-22.37 78.416-21.446 129.09 5.853 43.488 23.426 63.504 28.593 85.608 22.096m-99.286-97.459C188.938 607.031 175.045 190.797 467.1 139.4c214.23-37.702 378.415 222.134 248.67 393.537C657.1 610.44 568.663 652.025 483.873 641.978m58.26-25.674c187.76-32.114 260.26-258.506 125.293-391.254C538.533 98.272 319.612 165.576 281.23 343.78c-32.993 153.183 106.537 298.926 260.904 272.524m-145.46-119.149c-94.637-29.32-91.68-189.06 3.979-214.993 30.212-8.19 86.673 2.657 86.624 16.642-.066 19.103-9.572 25.284-26.618 17.307-50.428-23.598-96.516 8.939-96.459 68.097.07 71.518 34.634 99.835 97.023 79.485 21.031-6.86 31.082 2.022 23.79 21.025-4.661 12.146-62.84 20.337-88.34 12.437m102.018-.631c-2.148-2.149-1.134-8.03 3.761-21.819a1865 1865 0 0 0 9.19-26.626c2.36-7.053 7.066-20.133 10.458-29.067 3.392-8.933 12.728-34.709 20.746-57.278 31.817-89.562 25.868-79.507 47.035-79.507 20.44 0 16.768-4.902 35.85 47.875 8.67 23.98 17.717 48.217 20.104 53.86 2.386 5.642 6.6 17.46 9.363 26.262s7.548 21.882 10.634 29.066c21.583 50.255 21.793 58.684 1.446 58.013l-14.988-.494-4.647-9.404c-2.555-5.172-5.868-13.636-7.361-18.808-1.494-5.172-4.442-14.02-6.55-19.663l-3.836-10.259-40.253-.457-40.252-.458-3.852 13.281c-5.139 17.716-15.374 43.75-17.815 45.314-2.453 1.572-27.484 1.717-29.033.169m114.13-89.426c5.476-2.082 5-5.206-4.953-32.54-3.938-10.815-9.371-26.78-12.073-35.48-5.482-17.647-6.407-18.609-9.045-9.403-1.01 3.526-7.21 22.17-13.778 41.429-8.643 25.347-11.38 35.374-9.911 36.307 2.97 1.89 44.657 1.627 49.76-.313M275.718 545.966c-68.423-88.17-66.535-233.004 4.266-327.217C387.158 76.133 608.067 67.274 716.659 201.236c16.883 20.826 16.201 22.406-2.065 4.786C475.887-24.24 113.061 252.665 275.89 540.836c7.305 12.927 7.246 14.687-.17 5.13" style="fill:#6e6e6e;stroke-width:1.70981"/><path d="M407.74 985.36c-.967-.69-9.498-11.257-18.958-23.482-23.694-30.62-59.493-76.463-70.488-90.268-5.108-6.412-10.47-11.466-12.168-11.466-2.683 0-24.536 2.964-94.112 12.767-26.337 3.71-62.09 7.784-62.727 7.147-.7-.7 5.73-16.805 16.144-40.432 19.058-43.236 67.092-155.412 71.02-165.852 2.299-6.112 6.75-16.003 9.89-21.98l5.71-10.865-3.986-15.636c-12.932-50.742-24.036-67.334-71.102-106.242-64.011-52.915-71.645-90.918-31.555-157.086 18.73-30.912 25.57-56.12 25.57-94.213 0-69.002 16.389-104.327 65.73-141.679 13.802-10.447 36.622-20.557 77.895-34.509 43.139-14.582 52.745-19.287 79.173-38.776 53.365-39.352 85.094-42.117 151.827-13.23 41.197 17.833 59.442 19.178 104.543 7.708 79.303-20.17 124.324 6.644 139.89 83.315 9.483 46.714 17.848 61.446 58.979 103.86 48.106 49.61 50.213 71.657 12.824 134.212-24.396 40.814-24.658 56.112-1.8 105.073 40.856 87.51 26.368 122.838-54.315 132.44-23.96 2.85-41.188 7.914-48.736 14.324-3.04 2.582-13.992 10.975-24.336 18.65-18.036 13.383-35.363 30.556-65.796 65.208-51.131 58.222-97.424 71.457-153.791 43.97-8.866-4.324-17.22-7.861-18.563-7.861-2.742 0-2.835-.325 4.754 16.595l5.526 12.321-4.308 10.762c-2.369 5.919-8.102 19.61-12.74 30.424a75269 75269 0 0 0-20.866 48.73c-6.839 15.987-16.662 38.684-21.828 50.44-5.167 11.754-11.583 26.758-14.257 33.34-15.676 38.586-19.192 45.04-23.043 42.29m175.42-245.923c25.396-7.464 51.253-28.257 82.99-66.738 7.857-9.525 17.185-19.817 20.73-22.87s12.986-11.805 20.98-19.45c25.998-24.864 60.104-40.01 100.122-44.462 60.836-6.77 69.182-30.987 35.163-102.038-26.952-56.291-25.704-84.337 5.912-132.84 28.145-43.179 24.677-66.077-15.966-105.411-39.002-37.747-51.608-60.632-63.501-115.287-14.032-64.48-47.828-83.28-117.3-65.249-46.603 12.096-74.979 9.152-123.084-12.77-43.642-19.888-74.373-19.31-105.535 1.983-53.307 36.425-65.427 42.75-105.649 55.138-93.294 28.732-125.915 67.026-128.981 151.412-2.097 57.693-4.137 66.36-24.551 104.298-23.198 43.11-23.979 44.796-25.144 54.283-3.8 30.928 11.602 56.497 52.568 87.267 47.597 35.75 59.929 56.457 79.125 132.87 21.233 84.514 36.147 95.524 97.423 71.915 58.057-22.37 78.416-21.446 129.09 5.853 43.488 23.426 63.504 28.593 85.608 22.096m-99.286-97.459C188.938 607.031 175.045 190.797 467.1 139.4c214.23-37.702 378.415 222.134 248.67 393.537C657.1 610.44 568.663 652.025 483.873 641.978m58.26-25.674c187.76-32.114 260.26-258.506 125.293-391.254C538.533 98.272 319.612 165.576 281.23 343.78c-32.993 153.183 106.537 298.926 260.904 272.524m-145.46-119.149c-94.637-29.32-91.68-189.06 3.979-214.993 30.212-8.19 86.673 2.657 86.624 16.642-.066 19.103-9.572 25.284-26.618 17.307-50.428-23.598-96.516 8.939-96.459 68.097.07 71.518 34.634 99.835 97.023 79.485 21.031-6.86 31.082 2.022 23.79 21.025-4.661 12.146-62.84 20.337-88.34 12.437m102.018-.631c-2.148-2.149-1.134-8.03 3.761-21.819a1865 1865 0 0 0 9.19-26.626c2.36-7.053 7.066-20.133 10.458-29.067 3.392-8.933 12.728-34.709 20.746-57.278 31.817-89.562 25.868-79.507 47.035-79.507 20.44 0 16.768-4.902 35.85 47.875 8.67 23.98 17.717 48.217 20.104 53.86 2.386 5.642 6.6 17.46 9.363 26.262s7.548 21.882 10.634 29.066c21.583 50.255 21.793 58.684 1.446 58.013l-14.988-.494-4.647-9.404c-2.555-5.172-5.868-13.636-7.361-18.808-1.494-5.172-4.442-14.02-6.55-19.663l-3.836-10.259-40.253-.457-40.252-.458-3.852 13.281c-5.139 17.716-15.374 43.75-17.815 45.314-2.453 1.572-27.484 1.717-29.033.169m114.13-89.426c5.476-2.082 5-5.206-4.953-32.54-3.938-10.815-9.371-26.78-12.073-35.48-5.482-17.647-6.407-18.609-9.045-9.403-1.01 3.526-7.21 22.17-13.778 41.429-8.643 25.347-11.38 35.374-9.911 36.307 2.97 1.89 44.657 1.627 49.76-.313M275.718 545.966c-68.423-88.17-66.535-233.004 4.266-327.217C387.158 76.133 608.067 67.274 716.659 201.236c16.883 20.826 16.201 22.406-2.065 4.786C475.887-24.24 113.061 252.665 275.89 540.836c7.305 12.927 7.246 14.687-.17 5.13" style="fill:#5b48a4;stroke-width:1.70981"/><path d="M395.53 969.382a12209 12209 0 0 0-26.267-33.77 13023 13023 0 0 1-29.922-38.503 16320 16320 0 0 0-23.513-30.321l-6.469-8.3 11.849-26.101c6.516-14.356 12.405-28.026 13.086-30.377s3.07-8.675 5.307-14.054c5.421-13.032 5.336-13.303-4.166-13.303-41.03 0-65.93-19.996-88.332-70.936-12.2-27.742-12.111-25.725-2.1-47.854l6.941-15.347-3.932-15.43c-12.872-50.512-24.033-67.168-71.05-106.035-64.01-52.915-71.644-90.918-31.554-157.086 18.73-30.912 25.57-56.12 25.57-94.213 0-69.002 16.389-104.327 65.73-141.679 13.802-10.447 36.622-20.557 77.895-34.509 43.139-14.582 52.745-19.287 79.173-38.776 53.365-39.352 85.094-42.117 151.827-13.23 41.197 17.833 59.442 19.178 104.543 7.708 79.303-20.17 124.324 6.644 139.89 83.315 9.483 46.714 17.848 61.446 58.979 103.86 48.106 49.61 50.213 71.657 12.824 134.212-24.396 40.814-24.658 56.112-1.8 105.073 40.856 87.51 26.368 122.838-54.315 132.44-23.96 2.85-41.188 7.914-48.736 14.324-3.04 2.582-13.992 10.975-24.336 18.65-18.036 13.383-35.363 30.556-65.796 65.208-51.131 58.222-97.424 71.457-153.791 43.97-8.866-4.324-17.22-7.861-18.563-7.861-2.744 0-2.841-.34 4.8 16.7l5.574 12.425-5.592 12.367c-5.434 12.018-11.112 25.152-31.588 73.065-19.06 44.602-37.1 86.52-44.73 103.935-4.239 9.674-8.501 19.869-9.473 22.655-2.541 7.291-3.191 6.85-17.962-12.222m187.63-229.945c25.396-7.464 51.253-28.257 82.99-66.738 7.857-9.525 17.185-19.817 20.73-22.87s12.986-11.805 20.98-19.45c25.998-24.864 60.104-40.01 100.122-44.462 60.836-6.77 69.182-30.987 35.163-102.038-26.952-56.291-25.704-84.337 5.912-132.84 28.145-43.179 24.677-66.077-15.966-105.411-39.002-37.747-51.608-60.632-63.501-115.287-14.032-64.48-47.828-83.28-117.3-65.249-46.603 12.096-74.979 9.152-123.084-12.77-43.642-19.888-74.373-19.31-105.535 1.983-53.307 36.425-65.427 42.75-105.649 55.138-93.294 28.732-125.915 67.026-128.981 151.412-2.097 57.693-4.137 66.36-24.551 104.298-23.198 43.11-23.979 44.796-25.144 54.283-3.8 30.928 11.602 56.497 52.568 87.267 47.597 35.75 59.929 56.457 79.125 132.87 21.233 84.514 36.147 95.524 97.423 71.915 58.057-22.37 78.416-21.446 129.09 5.853 43.488 23.426 63.504 28.593 85.608 22.096m-99.286-97.459C188.938 607.031 175.045 190.797 467.1 139.4c214.23-37.702 378.415 222.134 248.67 393.537C657.1 610.44 568.663 652.025 483.873 641.978m58.26-25.674c187.76-32.114 260.26-258.506 125.293-391.254C538.533 98.272 319.612 165.576 281.23 343.78c-32.993 153.183 106.537 298.926 260.904 272.524m-145.46-119.149c-94.637-29.32-91.68-189.06 3.979-214.993 30.212-8.19 86.673 2.657 86.624 16.642-.066 19.103-9.572 25.284-26.618 17.307-50.428-23.598-96.516 8.939-96.459 68.097.07 71.518 34.634 99.835 97.023 79.485 21.031-6.86 31.082 2.022 23.79 21.025-4.661 12.146-62.84 20.337-88.34 12.437m102.018-.631c-2.148-2.149-1.134-8.03 3.761-21.819a1865 1865 0 0 0 9.19-26.626c2.36-7.053 7.066-20.133 10.458-29.067 3.392-8.933 12.728-34.709 20.746-57.278 31.817-89.562 25.868-79.507 47.035-79.507 20.44 0 16.768-4.902 35.85 47.875 8.67 23.98 17.717 48.217 20.104 53.86 2.386 5.642 6.6 17.46 9.363 26.262s7.548 21.882 10.634 29.066c21.583 50.255 21.793 58.684 1.446 58.013l-14.988-.494-4.647-9.404c-2.555-5.172-5.868-13.636-7.361-18.808-1.494-5.172-4.442-14.02-6.55-19.663l-3.836-10.259-40.253-.457-40.252-.458-3.852 13.281c-5.139 17.716-15.374 43.75-17.815 45.314-2.453 1.572-27.484 1.717-29.033.169m114.13-89.426c5.476-2.082 5-5.206-4.953-32.54-3.938-10.815-9.371-26.78-12.073-35.48-5.482-17.647-6.407-18.609-9.045-9.403-1.01 3.526-7.21 22.17-13.778 41.429-8.643 25.347-11.38 35.374-9.911 36.307 2.97 1.89 44.657 1.627 49.76-.313M275.718 545.966c-68.423-88.17-66.535-233.004 4.266-327.217C387.158 76.133 608.067 67.274 716.659 201.236c16.883 20.826 16.201 22.406-2.065 4.786C475.887-24.24 113.061 252.665 275.89 540.836c7.305 12.927 7.246 14.687-.17 5.13" style="fill:#b04a29;stroke-width:1.70981"/><path d="M395.53 969.382a12209 12209 0 0 0-26.267-33.77 13023 13023 0 0 1-29.922-38.503 16320 16320 0 0 0-23.513-30.321l-6.469-8.3 11.849-26.101c6.516-14.356 12.405-28.026 13.086-30.377s3.07-8.675 5.307-14.054c5.421-13.032 5.336-13.303-4.166-13.303-41.058 0-65.927-19.988-88.374-71.031l-10.903-24.793 2.513-8.084c1.383-4.447 4.702-12.287 7.376-17.423l4.862-9.338 1.285 5.919c15.893 73.21 57.309 109.598 102.424 89.99 8.387-3.645 7.521-4.687-2.4-2.889-30.967 5.613-38.01 4.487-59.173-9.46-10.707-7.056-12.965-10.338-23.464-34.107-7.99-18.084-10.9-27.931-18.23-61.654-3.498-16.088-13.79-45.643-20.52-58.92-8.263-16.3-18.57-26.857-63.913-65.46-52.89-45.028-58.015-87.117-18.009-147.923 16.445-24.995 21.826-46.054 23.893-93.496 2.401-55.11 4.818-65.406 22.055-93.941 22.514-37.273 52.997-56.457 131.598-82.818 35.451-11.89 41.762-15.098 65.944-33.52 55.326-42.146 89.309-43.773 166.894-7.988 22.965 10.592 51.07 11.32 87.013 2.254 81.805-20.634 129.545 6.41 141.775 80.313 6.865 41.481 18.187 62.146 54.47 99.417 52.969 54.412 55.452 76.85 15.679 141.693-21.68 35.346-22.269 56.61-2.693 97.203 42.577 88.29 29.383 127.283-45.76 135.242-26.29 2.784-51.485 9.699-54.783 15.036-.614.994-9.74 8.255-20.279 16.137-19.466 14.557-36.806 31.61-66.905 65.797-55.6 63.15-108.598 76.188-164.988 40.591-12.07-7.619-12.898-5.563-4.987 12.377l7.005 15.885-5.574 12.327c-5.417 11.98-11.098 25.122-31.57 73.025-19.06 44.602-37.1 86.52-44.73 103.935-4.239 9.674-8.501 19.869-9.473 22.655-2.541 7.291-3.191 6.85-17.962-12.222m188.436-229.856c22.598-5.856 49.938-28.144 82.937-67.612 8.325-9.957 18.445-20.832 22.49-24.167 4.044-3.334 10.815-9.663 15.047-14.064 23.96-24.915 63.114-43.496 99.374-47.158 64.357-6.499 73.801-29.448 40.826-99.208-28.559-60.417-27.697-87.011 4.417-136.279 28.785-44.159 25.677-63.613-17.057-106.762-40.437-40.83-51.684-61.528-62.529-115.077-13.171-65.033-47.092-83.554-118.89-64.914-46.61 12.1-67.8 9.361-130.8-16.912-39.37-16.418-65.818-14.939-95.6 5.347a11480 11480 0 0 1-29.002 19.674c-22.72 15.353-49.165 27.533-78.866 36.326-40.687 12.046-74.596 30.358-91.038 49.167-29.133 33.324-34.66 48.627-37.206 102.999-2.873 61.388-3.333 63.164-28.767 111.107l-19.955 37.615v39.405l7.481 12.59c10.368 17.446 15.972 23.157 41.843 42.641 50.585 38.097 62.813 57.88 81.43 131.738 23.193 92.008 36.405 100.723 108.926 71.852 48.842-19.445 67.946-17.064 131.078 16.337 31.113 16.46 52.465 20.9 73.861 15.355m-100.092-97.548C188.938 607.031 175.045 190.797 467.1 139.4c214.23-37.702 378.415 222.134 248.67 393.537C657.1 610.44 568.663 652.025 483.873 641.978m58.26-25.674c187.76-32.114 260.26-258.506 125.293-391.254C538.533 98.272 319.612 165.576 281.23 343.78c-32.993 153.183 106.537 298.926 260.904 272.524M403.737 496.855c-101.848-23.187-96.425-199.366 6.612-214.81 30.397-4.557 77.053 7.03 74.707 18.553-3.413 16.754-8.621 21.448-17.992 16.216-54.145-30.236-105.454 4.64-105.078 71.422.406 71.825 39.922 100.246 105.357 75.775 13.806-5.163 14.289-4.857 15.81 10.026l1.17 11.425-6.637 2.784c-22.364 9.38-54.252 13.093-73.95 8.609m96.206-3.304c-.882-2.298 11.056-38.889 21.53-65.99 2.725-7.053 14.582-39.961 26.348-73.13 27.834-78.47 22.45-69.538 42.276-70.125l16.42-.487 1.917 4.761c1.054 2.619 9.311 25.15 18.35 50.071 23.417 64.567 35.044 96.307 46.155 125.994 11.69 31.235 11.677 31.317-4.779 31.283-17.086-.036-15.578 1.923-28.81-37.421-3.606-10.722-7.173-20.112-7.928-20.867-1.3-1.299-82.303-2.538-83.253-1.273-.247.33-3.576 10.216-7.397 21.971s-8.542 25.027-10.49 29.494l-3.541 8.122h-12.938c-9.536 0-13.18-.632-13.86-2.403m121.117-84.059c.534-.534-2.471-10.728-6.678-22.655-14.797-41.946-20.56-59.362-21.747-65.711-1.787-9.567-3.333-7.953-8.187 8.549-2.421 8.228-9.363 29.394-15.427 47.035s-10.647 32.452-10.185 32.913c1.18 1.18 61.039 1.055 62.224-.13M275.718 545.966c-49.523-63.815-64.438-172.654-34.71-253.283 47.088-127.709 174.371-203.83 307.736-184.04 62.863 9.328 126.283 43.763 165.434 89.825 19.25 22.648 19.786 26.34 1.22 8.402-239.67-231.564-603.04 44.55-439.509 333.966 7.305 12.927 7.246 14.687-.17 5.13m127.243 173.182 4.826-2.74-5.802 1.1c-7.967 1.511-17.28 5.558-17.28 7.508 0 1.81 10.905-1.694 18.256-5.868m66.463 4.346c-1.443-2.336-15.719-7.462-18.338-6.586-1.245.417 1.969 2.383 7.14 4.37 10.622 4.08 12.591 4.47 11.198 2.216" style="fill:#d12c18;stroke-width:1.70981"/><path d="M395.53 969.382a12209 12209 0 0 0-26.267-33.77 13023 13023 0 0 1-29.922-38.503 16320 16320 0 0 0-23.513-30.321l-6.469-8.3 11.849-26.101c6.516-14.356 12.405-28.026 13.086-30.377s3.07-8.675 5.307-14.054c5.421-13.032 5.336-13.303-4.166-13.303-41.058 0-65.927-19.988-88.374-71.031l-10.903-24.793 2.513-8.084c1.383-4.447 4.702-12.287 7.376-17.423l4.862-9.338 1.285 5.919c15.893 73.21 57.309 109.598 102.424 89.99 8.387-3.645 7.521-4.687-2.4-2.889-30.967 5.613-38.01 4.487-59.173-9.46-10.707-7.056-12.965-10.338-23.464-34.107-7.99-18.084-10.9-27.931-18.23-61.654-3.498-16.088-13.79-45.643-20.52-58.92-8.263-16.3-18.57-26.857-63.913-65.46-52.89-45.028-58.015-87.117-18.009-147.923 16.445-24.995 21.826-46.054 23.893-93.496 2.401-55.11 4.818-65.406 22.055-93.941 22.514-37.273 52.997-56.457 131.598-82.818 35.451-11.89 41.762-15.098 65.944-33.52 55.326-42.146 89.309-43.773 166.894-7.988 22.965 10.592 51.07 11.32 87.013 2.254 81.805-20.634 129.545 6.41 141.775 80.313 6.865 41.481 18.187 62.146 54.47 99.417 52.969 54.412 55.452 76.85 15.679 141.693-21.68 35.346-22.269 56.61-2.693 97.203 42.577 88.29 29.383 127.283-45.76 135.242-26.29 2.784-51.485 9.699-54.783 15.036-.614.994-9.74 8.255-20.279 16.137-19.466 14.557-36.806 31.61-66.905 65.797-55.6 63.15-108.598 76.188-164.988 40.591-12.07-7.619-12.898-5.563-4.987 12.377l7.005 15.885-5.574 12.327c-5.417 11.98-11.098 25.122-31.57 73.025-19.06 44.602-37.1 86.52-44.73 103.935-4.239 9.674-8.501 19.869-9.473 22.655-2.541 7.291-3.191 6.85-17.962-12.222m188.436-229.856c22.598-5.856 49.938-28.144 82.937-67.612 8.325-9.957 18.445-20.832 22.49-24.167 4.044-3.334 10.815-9.663 15.047-14.064 23.96-24.915 63.114-43.496 99.374-47.158 64.357-6.499 73.801-29.448 40.826-99.208-28.559-60.417-27.697-87.011 4.417-136.279 28.785-44.159 25.677-63.613-17.057-106.762-40.437-40.83-51.684-61.528-62.529-115.077-13.171-65.033-47.092-83.554-118.89-64.914-46.61 12.1-67.8 9.361-130.8-16.912-39.37-16.418-65.818-14.939-95.6 5.347a11480 11480 0 0 1-29.002 19.674c-22.72 15.353-49.165 27.533-78.866 36.326-40.687 12.046-74.596 30.358-91.038 49.167-29.133 33.324-34.66 48.627-37.206 102.999-2.873 61.388-3.333 63.164-28.767 111.107l-19.955 37.615v39.405l7.481 12.59c10.368 17.446 15.972 23.157 41.843 42.641 50.585 38.097 62.813 57.88 81.43 131.738 23.193 92.008 36.405 100.723 108.926 71.852 48.842-19.445 67.946-17.064 131.078 16.337 31.113 16.46 52.465 20.9 73.861 15.355M469.341 637.178c-229.327-37.74-291.44-340.565-94.496-460.704 198.982-121.38 440.44 67.981 370.31 290.413-35.811 113.582-158.84 189.542-275.814 170.291m82.393-19.698c182.655-37.445 250.809-261.711 119.321-392.64-120.56-120.05-327.084-73.218-383.602 86.987-59.627 169.017 89.496 341.485 264.28 305.653M403.737 496.855c-101.848-23.187-96.425-199.366 6.612-214.81 30.397-4.557 77.053 7.03 74.707 18.553-3.413 16.754-8.621 21.448-17.992 16.216-54.145-30.236-105.454 4.64-105.078 71.422.406 71.825 39.922 100.246 105.357 75.775 13.806-5.163 14.289-4.857 15.81 10.026l1.17 11.425-6.637 2.784c-22.364 9.38-54.252 13.093-73.95 8.609m96.206-3.304c-.882-2.298 11.056-38.889 21.53-65.99 2.725-7.053 14.582-39.961 26.348-73.13 27.834-78.47 22.45-69.538 42.276-70.125l16.42-.487 1.917 4.761c1.054 2.619 9.311 25.15 18.35 50.071 23.417 64.567 35.044 96.307 46.155 125.994 11.69 31.235 11.677 31.317-4.779 31.283-17.086-.036-15.578 1.923-28.81-37.421-3.606-10.722-7.173-20.112-7.928-20.867-1.3-1.299-82.303-2.538-83.253-1.273-.247.33-3.576 10.216-7.397 21.971s-8.542 25.027-10.49 29.494l-3.541 8.122h-12.938c-9.536 0-13.18-.632-13.86-2.403m121.117-84.059c.534-.534-2.471-10.728-6.678-22.655-14.797-41.946-20.56-59.362-21.747-65.711-1.787-9.567-3.333-7.953-8.187 8.549-2.421 8.228-9.363 29.394-15.427 47.035s-10.647 32.452-10.185 32.913c1.18 1.18 61.039 1.055 62.224-.13M275.718 545.966c-49.523-63.815-64.438-172.654-34.71-253.283 47.088-127.709 174.371-203.83 307.736-184.04 62.863 9.328 126.283 43.763 165.434 89.825 19.25 22.648 19.786 26.34 1.22 8.402-239.67-231.564-603.04 44.55-439.509 333.966 7.305 12.927 7.246 14.687-.17 5.13m127.243 173.182 4.826-2.74-5.802 1.1c-7.967 1.511-17.28 5.558-17.28 7.508 0 1.81 10.905-1.694 18.256-5.868m66.463 4.346c-1.443-2.336-15.719-7.462-18.338-6.586-1.245.417 1.969 2.383 7.14 4.37 10.622 4.08 12.591 4.47 11.198 2.216" style="fill:#463587;stroke-width:1.70981"/><path d="M401.369 974.924c-4.47-6.235-15.383-20.57-24.25-31.854a9350 9350 0 0 1-33.334-42.746c-9.467-12.225-20.28-26.074-24.028-30.776-8.47-10.624-8.731-7.925 3.274-33.805 5.57-12.01 11.461-25.859 13.09-30.776 1.63-4.918 5.148-13.822 7.82-19.787s4.858-12.29 4.858-14.057c0-1.766 1.924-7.561 4.275-12.877 6.301-14.249 6.227-14.366-7.267-11.504-37.12 7.875-65.46-6.943-80.674-42.183-9.316-21.578-15.522-28.548-18.122-20.354-1.396 4.398-3.169 2.681-5.829-5.645-2.233-6.993.463-16.245 3.366-11.549.764 1.237 2.652 2.434 4.196 2.66 3.043.447 2.288-7.376-1.259-13.056-1.205-1.93-.95-4.187.865-7.65l2.574-4.913 1.277 5.885c15.885 73.173 57.311 109.56 102.417 89.956 8.387-3.645 7.521-4.687-2.4-2.889-30.967 5.613-38.01 4.487-59.173-9.46-10.707-7.056-12.965-10.338-23.464-34.107-7.989-18.084-10.9-27.931-18.23-61.654-3.498-16.088-13.79-45.643-20.52-58.92-8.263-16.3-18.57-26.857-63.913-65.46-52.89-45.028-58.015-87.117-18.009-147.923 16.445-24.995 21.826-46.054 23.893-93.496 2.401-55.11 4.818-65.406 22.055-93.941 22.514-37.273 52.997-56.457 131.598-82.818 35.451-11.89 41.762-15.098 65.944-33.52 55.326-42.146 89.309-43.773 166.894-7.988 22.965 10.592 51.07 11.32 87.013 2.254 81.805-20.634 129.545 6.41 141.775 80.313 6.865 41.481 18.187 62.146 54.47 99.417 52.969 54.412 55.452 76.85 15.679 141.693-21.68 35.346-22.269 56.61-2.693 97.203 42.577 88.29 29.383 127.283-45.76 135.242-26.29 2.784-51.485 9.699-54.783 15.036-.614.994-9.74 8.255-20.279 16.137-19.466 14.557-36.806 31.61-66.905 65.797-55.6 63.15-108.598 76.188-164.988 40.591-12.07-7.619-12.898-5.563-4.986 12.378l7.005 15.885-9.43 18.31c-5.185 10.072-10.41 21.385-11.608 25.142-1.2 3.757-5.226 13.374-8.949 21.373-3.722 7.998-11.596 26.083-17.496 40.19-20.236 48.375-31.693 75.245-37.545 88.055-3.222 7.052-6.37 14.946-6.994 17.541-1.75 7.27-2.73 6.813-11.45-5.35m182.597-235.398c22.598-5.856 49.938-28.144 82.937-67.612 8.325-9.957 18.445-20.832 22.49-24.167 4.044-3.334 10.815-9.663 15.047-14.064 23.96-24.915 63.114-43.496 99.374-47.158 64.357-6.499 73.801-29.448 40.826-99.208-28.559-60.417-27.697-87.011 4.417-136.279 28.785-44.159 25.677-63.613-17.057-106.762-40.437-40.83-51.684-61.528-62.529-115.077-13.171-65.033-47.092-83.554-118.89-64.914-46.61 12.1-67.8 9.361-130.8-16.912-39.37-16.418-65.818-14.939-95.6 5.347a11480 11480 0 0 1-29.002 19.674c-22.72 15.353-49.165 27.533-78.866 36.326-40.687 12.046-74.596 30.358-91.038 49.167-29.133 33.324-34.66 48.627-37.206 102.999-2.873 61.388-3.333 63.164-28.767 111.107l-19.955 37.615v39.405l7.481 12.59c10.368 17.446 15.972 23.157 41.843 42.641 50.585 38.097 62.813 57.88 81.43 131.738 23.193 92.008 36.405 100.723 108.926 71.852 48.842-19.445 67.946-17.064 131.078 16.337 31.113 16.46 52.465 20.9 73.861 15.355M469.341 637.178c-229.327-37.74-291.44-340.565-94.496-460.704 198.982-121.38 440.44 67.981 370.31 290.413-35.811 113.582-158.84 189.542-275.814 170.291m82.393-19.698c182.655-37.445 250.809-261.711 119.321-392.64-120.56-120.05-327.084-73.218-383.602 86.987-59.627 169.017 89.496 341.485 264.28 305.653M403.737 496.855c-101.848-23.187-96.425-199.366 6.612-214.81 30.397-4.557 77.053 7.03 74.707 18.553-3.413 16.754-8.621 21.448-17.992 16.216-54.145-30.236-105.454 4.64-105.078 71.422.406 71.825 39.922 100.246 105.357 75.775 13.806-5.163 14.289-4.857 15.81 10.026l1.17 11.425-6.637 2.784c-22.364 9.38-54.252 13.093-73.95 8.609m96.206-3.304c-.882-2.298 11.056-38.889 21.53-65.99 2.725-7.053 14.582-39.961 26.348-73.13 27.834-78.47 22.45-69.538 42.276-70.125l16.42-.487 1.917 4.761c1.054 2.619 9.311 25.15 18.35 50.071 23.417 64.567 35.044 96.307 46.155 125.994 11.69 31.235 11.677 31.317-4.779 31.283-17.086-.036-15.578 1.923-28.81-37.421-3.606-10.722-7.173-20.112-7.928-20.867-1.3-1.299-82.303-2.538-83.253-1.273-.247.33-3.576 10.216-7.397 21.971s-8.542 25.027-10.49 29.494l-3.541 8.122h-12.938c-9.536 0-13.18-.632-13.86-2.403m121.117-84.059c.534-.534-2.471-10.728-6.678-22.655-14.797-41.946-20.56-59.362-21.747-65.711-1.787-9.567-3.333-7.953-8.187 8.549-2.421 8.228-9.363 29.394-15.427 47.035s-10.647 32.452-10.185 32.913c1.18 1.18 61.039 1.055 62.224-.13M275.718 545.966c-49.523-63.815-64.438-172.654-34.71-253.283 47.088-127.709 174.371-203.83 307.736-184.04 62.863 9.328 126.283 43.763 165.434 89.825 19.25 22.648 19.786 26.34 1.22 8.402-239.67-231.564-603.04 44.55-439.509 333.966 7.305 12.927 7.246 14.687-.17 5.13m127.243 173.182 4.826-2.74-5.802 1.1c-7.967 1.511-17.28 5.558-17.28 7.508 0 1.81 10.905-1.694 18.256-5.868m66.463 4.346c-1.443-2.336-15.719-7.462-18.338-6.586-1.245.417 1.969 2.383 7.14 4.37 10.622 4.08 12.591 4.47 11.198 2.216" style="fill:#b33715;stroke-width:1.70981"/><path d="M401.369 974.924c-4.47-6.235-15.383-20.57-24.25-31.854a9350 9350 0 0 1-33.334-42.746c-9.467-12.225-20.28-26.074-24.028-30.776-8.47-10.624-8.731-7.925 3.274-33.805 5.57-12.01 11.461-25.859 13.09-30.776 1.63-4.918 5.148-13.822 7.82-19.787s4.858-12.29 4.858-14.057c0-1.766 1.924-7.561 4.275-12.877 6.301-14.249 6.227-14.366-7.267-11.504-37.12 7.875-65.46-6.943-80.674-42.183-9.316-21.578-15.522-28.548-18.122-20.354-1.396 4.398-3.169 2.681-5.829-5.645-2.233-6.993.463-16.245 3.366-11.549.764 1.237 2.652 2.434 4.196 2.66 3.043.447 2.288-7.376-1.259-13.056-1.205-1.93-.95-4.187.865-7.65l2.574-4.913 1.277 5.885c15.885 73.173 57.311 109.56 102.417 89.956 8.312-3.612 7.539-4.68-2.11-2.912-5.293.97-6.878.832-5.56-.486s.631-3.109-2.41-6.282l-4.252-4.439 15.15-5.482c18.039-6.528 17.75-6.505 19.887-1.635.928 2.116 3.42 4.093 5.535 4.393s3.847 1.228 3.847 2.062c0 1.747 11.158-1.918 18.256-5.997l4.826-2.773-5.129.967c-4.123.778-4.542.61-2.137-.85 3.851-2.341 3.775-4.286-.328-8.389-4.509-4.508 4.644-7.938 15.752-5.902 11.039 2.024 17.15 1.893 20.91-.448 3.204-1.995 15.37-.676 19.968 2.165 1.448.895-3.22 10.79-6.068 12.862-.818.596 2.865 2.712 8.186 4.702 11.009 4.12 11.862 4.276 10.4 1.91-.589-.952.7-1.71 2.907-1.71 2.18 0 4.925-1.539 6.1-3.42 2.785-4.46 5.586-4.313 15.72.823 10.57 5.356 11.472 6.895 6.104 10.413-2.381 1.56-4.33 3.845-4.33 5.079s-1.127 2.491-2.505 2.795c-1.973.436-1.014 3.937 4.499 16.439l7.005 15.885-9.43 18.31c-5.185 10.072-10.41 21.385-11.608 25.142-1.2 3.757-5.226 13.374-8.949 21.373-3.722 7.998-11.596 26.083-17.496 40.19-20.236 48.375-31.693 75.245-37.545 88.055-3.222 7.052-6.37 14.946-6.994 17.541-1.75 7.27-2.73 6.813-11.45-5.35m134.107-218.912c-11.166-3.857-13.96-6.241-9.116-7.778 1.927-.612 3.98-2.612 4.562-4.445 2.441-7.692 29.894-.454 29.894 7.881 0 5.114.543 5.736 5.557 6.358 3.056.38-.599.788-8.122.907-9.325.149-16.574-.782-22.775-2.923m59.536-5.2c0-1.827-1.498-4.371-3.329-5.653-3.088-2.163-2.405-2.79 9.413-8.637 12.73-6.3 12.746-6.302 16.153-2.895 1.875 1.876 4.683 3.41 6.24 3.41 5.111 0-2.732 6.867-13.944 12.209-12.104 5.766-14.533 6.028-14.533 1.567M311.183 738.3c-4.26-1.934-4.254-1.943 1.595-2.588 7.39-.814 17.213.962 17.213 3.114 0 2.238-13.555 1.86-18.808-.526m326.254-11.954c1.868-2.28 1.784-3.632-.498-8.045l-2.744-5.305 8.193-8.568c7.94-8.304 8.364-8.507 13.771-6.612 3.068 1.076 6.75 1.506 8.183.956 3.546-1.36-5.869 12.023-13.17 18.723-7.125 6.538-17.111 12.973-13.735 8.851m-352.583-5.25c-3.332-3.533-7.62-9.953-9.528-14.266-4.145-9.37-4.245-10.18-.92-7.42 1.403 1.163 4.906 1.77 7.786 1.347 4.048-.595 5.652.04 7.068 2.795 1.008 1.96 3.174 5.104 4.813 6.984 2.835 3.253 2.83 3.75-.09 10.202l-3.07 6.782zm104.98-.3c0-.471.385-.856.855-.856s.855.385.855.855-.384.855-.855.855a.857.857 0 0 1-.855-.855m75.232 0c0-.471.385-.856.855-.856s.855.385.855.855-.385.855-.855.855a.857.857 0 0 1-.855-.855m-8.549-3.42c0-.47.385-.855.855-.855s.855.384.855.855c0 .47-.385.854-.855.854a.857.857 0 0 1-.855-.854m-188.08-25.648c0-.47.386-.855.856-.855s.855.385.855.855-.385.855-.855.855a.857.857 0 0 1-.855-.855m405.439-7.242c.043-2.6-.473-6.902-1.147-9.562-1.487-5.87 9.29-18.237 20.597-23.635 3.762-1.796 8.186-4.011 9.831-4.923a154 154 0 0 1 5.985-3.113c1.835-.893 3.195-3.825 3.516-7.582.569-6.65 9.915-16.755 18.803-20.331 2.536-1.02 7.01-3.03 9.944-4.465 6.59-3.224 10.197-2.007 11.31 3.816.918 4.804-16.88 21.013-30.957 28.195-3.465 1.768-10.896 8.473-16.511 14.9-26.763 30.624-31.504 34.66-31.371 26.7m-408.858-1.307c0-.47.385-.855.855-.855s.855.385.855.855-.385.855-.855.855a.857.857 0 0 1-.855-.855m-2.575-5.557c-3.109-7.556-13.136-53.678-11.932-54.882.456-.456.829.334.829 1.756 0 3.658 5.567 8.244 10.008 8.244 6.497 0 13.398 26.146 7.951 30.128-1.684 1.232-2.724 4.074-2.533 6.926.518 7.73.071 10.82-1.565 10.82-.84 0-2.08-1.346-2.758-2.992m206.898-40.443c-229.327-37.74-291.44-340.565-94.496-460.704 198.982-121.38 440.44 67.981 370.31 290.413-35.811 113.582-158.84 189.542-275.814 170.291m82.393-19.698c182.655-37.445 250.809-261.711 119.321-392.64-120.56-120.05-327.084-73.218-383.602 86.987-59.627 169.017 89.496 341.485 264.28 305.653M403.737 496.855c-101.848-23.187-96.425-199.366 6.612-214.81 30.397-4.557 77.053 7.03 74.707 18.553-3.413 16.754-8.621 21.448-17.992 16.216-54.145-30.236-105.454 4.64-105.078 71.422.406 71.825 39.922 100.246 105.357 75.775 13.806-5.163 14.289-4.857 15.81 10.026l1.17 11.425-6.637 2.784c-22.364 9.38-54.252 13.093-73.95 8.609m96.206-3.304c-.882-2.298 11.056-38.889 21.53-65.99 2.725-7.053 14.582-39.961 26.348-73.13 27.834-78.47 22.45-69.538 42.276-70.125l16.42-.487 1.917 4.761c1.054 2.619 9.311 25.15 18.35 50.071 23.417 64.567 35.044 96.307 46.155 125.994 11.69 31.235 11.677 31.317-4.779 31.283-17.086-.036-15.578 1.923-28.81-37.421-3.606-10.722-7.173-20.112-7.928-20.867-1.3-1.299-82.303-2.538-83.253-1.273-.247.33-3.576 10.216-7.397 21.971s-8.542 25.027-10.49 29.494l-3.541 8.122h-12.938c-9.536 0-13.18-.632-13.86-2.403m121.117-84.059c.534-.534-2.471-10.728-6.678-22.655-14.797-41.946-20.56-59.362-21.747-65.711-1.787-9.567-3.333-7.953-8.187 8.549-2.421 8.228-9.363 29.394-15.427 47.035s-10.647 32.452-10.185 32.913c1.18 1.18 61.039 1.055 62.224-.13M248.194 618.774c-.15-1.569-3.584-11.635-7.63-22.37l-7.355-19.519 4.364-.067c2.4-.038 5.517-.358 6.927-.713 3.427-.862 11.6 15.608 13.045 26.285 1.065 7.869.962 8.121-3.3 8.121-3.681 0-4.51.907-5.088 5.557-.38 3.056-.813 4.274-.963 2.706m521.453-9.4c1.488-1.792 1.286-3.077-.853-5.441-3.888-4.296-3.629-4.852 3.328-7.148 23.036-7.603 41.182-8.577 46.875-2.517 2.77 2.948 5.913 4.308 10.13 4.383 11.151.198.005 3.034-22.572 5.743-11.495 1.38-24.94 3.593-29.878 4.918-7.538 2.023-8.666 2.033-7.03.062m74.798-15.162c5.062-2.394 10-4.086 10.974-3.762 2.294.765-8.408 5.825-15.05 7.116-3.534.687-2.267-.356 4.076-3.354m22.104-16.47c.564-3.848-.075-6.038-2.22-7.607-2.712-1.983-2.79-2.961-.774-9.786 1.943-6.579 2.563-7.26 4.686-5.136 3.848 3.847 6.31 1.743 6.488-5.542.356-14.667 2.678-24.428 4.441-18.666 3.826 12.506-2.453 42.222-10.45 49.46-2.763 2.5-2.91 2.315-2.171-2.722m-646.526-21.26c-5.862-7.524-23.531-24.352-37.973-36.166-7.08-5.791-3.365-5.705 4.607.107 3.127 2.28 5.949 2.98 8.962 2.224 9.437-2.369 27.772 11.44 22.932 17.27-4.693 5.656-2.55 10.177 3.86 8.142 2.4-.762 3.188-2.027 2.463-3.957-.757-2.016.047-1.736 2.779.967l3.844 3.805-3.903 4.155c-3.234 3.442-3.575 4.77-1.988 7.736 3.084 5.763.995 4.16-5.583-4.283m655.398-33.171c0-1.254.513-1.767 1.14-1.14a1.617 1.617 0 0 1 0 2.28c-.627.627-1.14.114-1.14-1.14m-1.71-6.84c0-1.253.513-1.766 1.14-1.14a1.617 1.617 0 0 1 0 2.28c-.627.627-1.14.115-1.14-1.14m-726.208-26.173c-8.218-8.689-12.307-14.947-15.84-24.239-1.515-3.986-1.392-4.129 1.86-2.148 2.988 1.82 3.925 1.581 6.603-1.683l3.12-3.805 8.973 13.668c8.169 12.442 8.74 13.933 6.38 16.628-1.425 1.628-2.306 4.692-1.956 6.807.865 5.238.631 5.104-9.14-5.228m698.346-8.957c-7.242-14.635-7.698-17.909-2.914-20.896 1.88-1.175 3.457-3.86 3.503-5.968.056-2.559 2.133.146 6.246 8.136 8.839 17.168 14.82 31.127 12.273 28.639-2.908-2.84-6.597-2.7-9.997.376-2.51 2.272-3.387 1.281-9.111-10.287m-603.7-7.079c-48.76-147.56 31.256-305.556 178.32-352.098 62.666-19.832 142.722-17.868 184.802 4.534 3.291 1.752 12.14 5.672 19.663 8.711 19.783 7.991 30.273 14.56 55.137 34.523 15.179 12.186 16.483 14.632 1.714 3.21-63.832-49.358-145.598-66.195-233.99-48.182-21.736 4.43-76.34 28.622-93.203 41.293-34.567 25.975-63.92 57.99-85.714 93.486-33.112 53.93-44.274 152.194-24.503 215.719 1.874 6.02 3.133 11.22 2.798 11.554-.335.336-2.596-5.402-5.024-12.75m-118.217-32.167c-1.927-10.515-1.624-24.21.663-29.922l1.712-4.274.108 4.016c.06 2.208 2.417 6.172 5.238 8.807 4.875 4.554 7.983 20.969 3.847 20.315-5.945-.938-8.796.553-9.375 4.905-.495 3.724-.951 2.923-2.193-3.847M840 436.25c-1.39-2.225-3.227-2.97-5.716-2.32-4.82 1.261-6.685-1.947-6.688-11.499-.005-14.012 3.885-19.318 9.815-13.389 1.526 1.527 2.335 1.094 3.416-1.83.918-2.48 1.485 2.544 1.61 14.244.106 9.94.062 18.073-.099 18.073-.16 0-1.212-1.475-2.338-3.279m-699.846-40.38c-1.32-1.588-3.83-3.418-5.579-4.065-3.393-1.255 5.073-20.598 13.96-31.895l3.636-4.623v4.408c0 2.579 1.532 5.482 3.691 6.994l3.692 2.586-5.387 10.762c-8.091 16.165-11.006 19.458-14.013 15.834m706.2-6.78c0-.47.385-.855.855-.855s.855.385.855.855-.385.855-.855.855a.857.857 0 0 1-.855-.855m-2.137-9.154c-5.96-12.946 9.95-41.07 17.541-31.006 1.943 2.575 3.958 3.552 5.839 2.83 1.58-.606 2.575-.534 2.212.16-15.032 28.777-21.821 36.209-25.592 28.016m26.075-31.882c0-.47.384-.855.854-.855s.855.385.855.855-.384.855-.855.855a.857.857 0 0 1-.854-.855m-701.503-6.219c-1.655-.926-4.452-1.226-6.215-.666-2.952.937-2.816-.227 1.721-14.698 2.71-8.644 5.432-19.523 6.05-24.176l1.122-8.46 2.433 6.592c1.338 3.626 2.857 7.938 3.375 9.584s1.621 2.992 2.452 2.992c2.305 0 1.804 8.65-1.06 18.293-3.03 10.206-5.592 12.938-9.878 10.54m704.922-.62c0-.47.385-.855.855-.855s.855.385.855.855-.385.855-.855.855a.857.857 0 0 1-.855-.855m1.71-3.42c0-.47.385-.855.855-.855s.855.385.855.855-.385.855-.855.855a.857.857 0 0 1-.855-.855m1.854-5.326c-.08-1.989-1.683-5.573-3.564-7.964-6.303-8.013-4.87-22.622 2.565-26.15 3.291-1.562 6.033-4.098 6.093-5.637.067-1.75.768-1.198 1.87 1.477 2.513 6.096.546 25.854-3.437 34.525-2.4 5.226-3.425 6.315-3.527 3.75m-703.947-64.776c.003-10.344.285-14.356.626-8.914.34 5.442.337 13.905-.007 18.808s-.623.45-.619-9.894m683.823-.997c-2.647-3.84-6.537-9.137-8.645-11.771-3.35-4.187-3.512-5.056-1.283-6.907 3.913-3.247 3.072-6.161-2.861-9.918-4.61-2.918-5.764-3.076-7.779-1.06-2.37 2.37-8.7.25-9.25-3.1a53 53 0 0 0-.505-2.58c-.16-.706-.859-4.119-1.553-7.585-2.919-14.575-18.088-31.354-22.956-25.392-3.001 3.677-9.742-4.566-13.572-16.597-2.801-8.8-2.785-9.038.875-12.933 2.05-2.183 3.732-5.843 3.736-8.133.005-2.535 2.92 2.292 7.45 12.336 11.042 24.485 13.088 27.252 42.283 57.187 25.41 26.055 35.604 38.912 30.287 38.199-5.221-.7-8.216.273-8.216 2.67 0 4.47-3.04 2.793-8.01-4.416m-682.497-32.621c-.598-14.621 13.938-61.332 17.864-57.405.412.412-.414 2.98-1.835 5.706-3.531 6.77-3.261 10.878 1.012 15.426l3.618 3.852-3.85 12.502c-2.117 6.876-4.194 11.54-4.615 10.364s-2.61-2.137-4.866-2.137c-4.207 0-5.038 1.657-6.431 12.824-.576 4.61-.666 4.496-.897-1.132m30.697-60.947c-2.424-4.53-4.8-4.725-9.24-.757-2.255 2.016-1.633.203 1.908-5.557 5.426-8.827 23.797-27.839 22.052-22.821-.54 1.554.094 4.247 1.41 5.984 3.808 5.026 2.917 7.697-5.865 17.594-8.01 9.027-8.319 9.194-10.265 5.557m582.056-36.107c-1.302-4.102-6.904-4.762-8.354-.983-1.917 4.997-4.063 2.442-5.985-7.125-2.768-13.784-2.481-16.727 2.321-23.803l4.267-6.288 2.473 5.918c1.36 3.254 3.597 12.397 4.971 20.317 2.44 14.058 2.568 19.09.307 11.964m-544.73-2.83c-1.308-1.577-3.89-2.388-6.194-1.948-8.628 1.65 9.974-12.693 23.908-18.434l6.487-2.672-2.646 4.038c-2.893 4.416-2.053 6.33 2.781 6.33 5.81 0 3.195 3.09-7.83 9.256-12.445 6.96-13.41 7.16-16.506 3.43m65.894-29.018c-.967-1.59-4.737-3.376-8.378-3.968-6.509-1.058 3.805-5.12 55.445-21.834 1.41-.456-1.86 1.974-7.266 5.4-11.597 7.35-12.407 9.74-2.894 8.545 10.16-1.277 6.967 1.546-8.496 7.509-17.895 6.901-26.097 8.156-28.411 4.348m-17.906-3.332c0-.47.385-.855.855-.855s.855.385.855.855-.384.855-.855.855a.857.857 0 0 1-.855-.855M748.9 77.706c-7.838-7.08-8.401-8.677-2.997-8.486 3.996.141 4.208-.58 2.154-7.333l-1.231-4.05 5.498 3.195c9.84 5.718 19.33 19.213 11.84 16.835-2.68-.85-3.767-.256-4.475 2.45-1.286 4.917-2.885 4.53-10.79-2.611m-389.842.199c0-.47.385-.855.855-.855s.855.385.855.855-.385.855-.855.855a.857.857 0 0 1-.855-.855m29.922-8.71c-2.133-1.631-5.251-2.258-8.286-1.665-6.468 1.264 23.81-22.352 38.207-29.801l4.275-2.212-3.405 3.832-3.405 3.831 4.075 3.3c2.24 1.814 3.733 3.64 3.317 4.056-2.204 2.204-29.475 21.376-30.34 21.33-.56-.03-2.558-1.232-4.438-2.67m229.542-1.826c5.487-2.215-6.073-8.857-16.278-9.354-2.567-.125 1.873-.903 9.866-1.73 7.993-.826 23.715-3.79 34.936-6.584 11.222-2.795 20.776-4.71 21.23-4.255.456.455-.015.827-1.045.827s-3.117 1.245-4.639 2.767c-1.74 1.74-6.694 3.036-13.361 3.495-13.83.952-27.415 10.837-14.893 10.837 5.362 0 4 2.876-1.924 4.06-6.243 1.249-17.022 1.2-13.892-.063m41.463-9.127c1.41-.911 4.103-1.615 5.984-1.563l3.42.094-3.42 1.47c-5.112 2.196-9.383 2.196-5.984 0m54.714-.285-4.275-1.778 3.847-1.794c4.275-1.994 4.894-4.671 1.796-7.77-4.09-4.09 4.54-2.134 17.06 3.866 12.669 6.071 17.03 9.543 6.419 5.11-8.098-3.384-12.455-3.11-14.985.941-2.381 3.813-3.674 4-9.862 1.425m-181.067-6.622c-8.65-3.925-8.152-5.608 1.964-6.64 2.453-.25 1.264-4.902-1.527-5.973-1.545-.593-2.42-1.468-1.943-1.945s5.741 1.247 11.699 3.831c9.42 4.086 10.286 4.826 6.644 5.68-2.617.613-4.392 2.396-4.733 4.758-.668 4.619-2.466 4.662-12.104.289m147.725-8.58c9.33-1.929 22.33-1.85 16.244.099-2.351.753-8.507 1.357-13.679 1.343-9.354-.026-9.368-.034-2.565-1.441m27.072.669a1.617 1.617 0 0 1 2.28 0c.627.627.114 1.14-1.14 1.14s-1.767-.513-1.14-1.14m-198.338-3.42a1.617 1.617 0 0 1 2.28 0c.627.627.114 1.14-1.14 1.14s-1.767-.513-1.14-1.14m-3.99-1.425c0-.47.385-.855.856-.855.47 0 .854.385.854.855s-.384.855-.854.855a.857.857 0 0 1-.855-.855m20.376-3.259c-.392-.381-3.33-1.102-6.527-1.6-3.198-.5-7.045-2.193-8.55-3.765-2.53-2.643-2.414-2.765 1.54-1.63 6.397 1.837 18.226 7.38 16.102 7.546-1.02.079-2.173-.169-2.565-.55m-87.058-7c0-.47.385-.854.855-.854s.855.384.855.854-.385.855-.855.855a.857.857 0 0 1-.855-.855m31.632-2.564c-.582-.94-3.897-1.806-7.368-1.923-5.648-.191-5.413-.343 2.238-1.44 4.702-.675 12.396-.681 17.098-.015 6.24.884 7.075 1.273 3.093 1.44-3 .125-5.931.997-6.512 1.938-.582.94-2.505 1.71-4.275 1.71s-3.693-.77-4.274-1.71z" style="fill:#ab3314;stroke-width:1.70981"/><path d="M401.369 974.924c-4.47-6.235-15.383-20.57-24.25-31.854a9350 9350 0 0 1-33.334-42.746c-9.467-12.225-20.28-26.074-24.028-30.776-8.47-10.624-8.731-7.925 3.274-33.805 5.57-12.01 11.461-25.859 13.09-30.776 1.63-4.918 5.148-13.822 7.82-19.787s4.858-12.29 4.858-14.057c0-1.766 1.924-7.561 4.275-12.877 6.301-14.249 6.227-14.366-7.267-11.504-37.12 7.875-65.46-6.943-80.674-42.183-9.316-21.578-15.522-28.548-18.122-20.354-1.396 4.398-3.169 2.681-5.829-5.645-2.233-6.993.463-16.245 3.366-11.549.764 1.237 2.652 2.434 4.196 2.66 3.043.447 2.288-7.376-1.259-13.056-1.205-1.93-.95-4.187.865-7.65l2.574-4.913 1.277 5.885c16.182 74.545 57.864 110.13 104.292 89.036 57.88-26.296 73.215-28.438 106.863-14.931 24.456 9.816 26.952 11.996 35.006 30.562l6.508 15.002-9.443 18.34c-5.194 10.086-10.425 21.412-11.624 25.17-1.2 3.756-5.226 13.373-8.949 21.372-3.722 7.998-11.596 26.083-17.496 40.19-20.236 48.375-31.693 75.245-37.545 88.055-3.222 7.052-6.37 14.946-6.994 17.541-1.75 7.27-2.73 6.813-11.45-5.35m67.972-337.746c-229.327-37.74-291.44-340.565-94.496-460.704 198.982-121.38 440.44 67.981 370.31 290.413-35.811 113.582-158.84 189.542-275.814 170.291m82.393-19.698c182.655-37.445 250.809-261.711 119.321-392.64-120.56-120.05-327.084-73.218-383.602 86.987-59.627 169.017 89.496 341.485 264.28 305.653m-152.76-122.952c-88.198-26.244-91.675-176.704-4.791-207.276 28.09-9.884 89.798-1.12 89.654 12.735-.166 15.965-7.485 20.048-22.959 12.807-55.831-26.127-102.805 12.686-99.575 82.276 3.048 65.698 40.649 92.561 100.902 72.088 19.414-6.596 18.277-6.96 19.475 6.25.85 9.38.596 10.424-3.142 12.851-14.47 9.398-59.903 14.12-79.564 8.27m102.463-4.907c.857-4.682 7.604-24.074 31.704-91.126 6.591-18.338 16.64-46.422 22.331-62.408s12.151-33.684 14.356-39.326l4.008-10.259 15.458-.488c18.598-.588 16.323-2.998 27.881 29.555 5.009 14.106 12.518 34.88 16.687 46.165s12.063 32.828 17.54 47.874a9707 9707 0 0 0 18.738 50.967c4.828 12.985 9.238 25.907 9.8 28.715l1.02 5.106-13.472-.503-13.472-.504-2.923-6.218c-1.607-3.42-6.122-15.731-10.033-27.357-9.483-28.192-3.887-25.413-51.178-25.413-30.47 0-41.03.534-42.271 2.137-.91 1.175-4.507 10.986-7.993 21.8s-8.03 23.125-10.096 27.357l-3.758 7.694-12.601.507-12.602.506zm120.228-79.59c.705-.707-2.377-11.863-6.848-24.792-4.472-12.928-11.461-33.892-15.532-46.588-8.335-25.997-10.266-27.674-14.761-12.823-1.708 5.642-8.641 26.675-15.407 46.739-10.19 30.215-11.885 36.755-9.874 38.078 2.83 1.863 60.519 1.296 62.422-.613" style="fill:#4e4f4e;stroke-width:1.70981"/><path d="M401.369 974.924c-4.47-6.235-15.383-20.57-24.25-31.854a9350 9350 0 0 1-33.334-42.746c-9.467-12.225-20.28-26.074-24.028-30.776-8.47-10.624-8.731-7.925 3.274-33.805 5.57-12.01 11.461-25.859 13.09-30.776 1.63-4.918 5.148-13.822 7.82-19.787s4.858-12.29 4.858-14.057c0-1.766 1.924-7.561 4.275-12.877 6.301-14.249 6.227-14.366-7.267-11.504-37.12 7.875-65.46-6.943-80.674-42.183-9.316-21.578-15.522-28.548-18.122-20.354-1.396 4.398-3.169 2.681-5.829-5.645-2.233-6.993.463-16.245 3.366-11.549.764 1.237 2.652 2.434 4.196 2.66 3.052.448 2.241-8.255-1.163-12.485-1.873-2.328-.265-9.059 2.164-9.059.877 0 1.595.34 1.595.756 0 26.013 31.082 79.598 52.149 89.904 13.094 6.405 54.22 5.072 59.004-1.913 16.945-24.74 128.22-22.153 128.22 2.98 0 1.395 2.693 8.365 5.985 15.49 7.51 16.253 7.59 15.064-2.352 34.579-4.584 8.999-9.323 19.435-10.53 23.192s-5.239 13.374-8.962 21.373c-3.722 7.998-11.596 26.083-17.496 40.19-20.236 48.375-31.693 75.245-37.545 88.055-3.222 7.052-6.37 14.946-6.994 17.541-1.75 7.27-2.73 6.813-11.45-5.35m67.972-337.746c-229.327-37.74-291.44-340.565-94.496-460.704 198.982-121.38 440.44 67.981 370.31 290.413-35.811 113.582-158.84 189.542-275.814 170.291m82.393-19.698c182.655-37.445 250.809-261.711 119.321-392.64-120.56-120.05-327.084-73.218-383.602 86.987-59.627 169.017 89.496 341.485 264.28 305.653m-152.76-122.952c-88.198-26.244-91.675-176.704-4.791-207.276 28.09-9.884 89.798-1.12 89.654 12.735-.166 15.965-7.485 20.048-22.959 12.807-55.831-26.127-102.805 12.686-99.575 82.276 3.048 65.698 40.649 92.561 100.902 72.088 19.414-6.596 18.277-6.96 19.475 6.25.85 9.38.596 10.424-3.142 12.851-14.47 9.398-59.903 14.12-79.564 8.27m102.463-4.907c.857-4.682 7.604-24.074 31.704-91.126 6.591-18.338 16.64-46.422 22.331-62.408s12.151-33.684 14.356-39.326l4.008-10.259 15.458-.488c18.598-.588 16.323-2.998 27.881 29.555 5.009 14.106 12.518 34.88 16.687 46.165s12.063 32.828 17.54 47.874a9707 9707 0 0 0 18.738 50.967c4.828 12.985 9.238 25.907 9.8 28.715l1.02 5.106-13.472-.503-13.472-.504-2.923-6.218c-1.607-3.42-6.122-15.731-10.033-27.357-9.483-28.192-3.887-25.413-51.178-25.413-30.47 0-41.03.534-42.271 2.137-.91 1.175-4.507 10.986-7.993 21.8s-8.03 23.125-10.096 27.357l-3.758 7.694-12.601.507-12.602.506zm120.228-79.59c.705-.707-2.377-11.863-6.848-24.792-4.472-12.928-11.461-33.892-15.532-46.588-8.335-25.997-10.266-27.674-14.761-12.823-1.708 5.642-8.641 26.675-15.407 46.739-10.19 30.215-11.885 36.755-9.874 38.078 2.83 1.863 60.519 1.296 62.422-.613" style="fill:#513167;stroke-width:1.70981"/><path d="M400.448 973.495c-4.799-6.39-15.113-19.813-22.92-29.829a7064 7064 0 0 1-29.584-38.296c-8.463-11.047-19.002-24.369-23.418-29.605-13.58-16.1-13.53-13.763-.911-41.543 6.125-13.485 12.11-27.595 13.3-31.357 1.189-3.761 4.35-11.72 7.023-17.685s4.861-12.262 4.861-13.993c0-4.974 8.705-24.438 12.404-27.734 1.844-1.643 2.941-4.061 2.438-5.373-1.179-3.072 17.738-10.244 26.193-9.93 6.616.246 18.161-4.811 17.588-7.703-.491-2.483 12.772-5.668 22.923-5.506 11.087.177 23.168 3.966 18.708 5.866-2.617 1.115-1.717 1.919 5.012 4.473 5.95 2.258 8.808 2.61 10.411 1.279 7.476-6.204 29.52 13.357 29.631 26.294.014 1.646.84 2.992 1.837 2.992.996 0 1.335.77.754 1.71s-.336 1.71.546 1.71c7.547 0 5.518 13.61-5.237 35.118-3.273 6.546-6.945 14.98-8.161 18.741-1.216 3.762-5.618 14.149-9.782 23.082S462.665 862 457.986 873.672s-9.748 23.598-11.265 26.502c-2.353 4.503-12.97 29.353-30.746 71.962-5.97 14.309-5.811 14.295-15.527 1.36m-81.143-223.912c1.175-.474 3.099-.474 4.274 0 1.176.475.214.863-2.137.863s-3.313-.388-2.137-.863m-8.122-1.432c0-.47.385-.855.855-.855s.855.385.855.855-.385.855-.855.855a.857.857 0 0 1-.855-.855m-35.353-23.51c-1.905-2.116-4.076-5.001-4.824-6.412-1.443-2.72-1.05-2.348 5.877 5.557 2.266 2.586 3.735 4.702 3.265 4.702s-2.414-1.73-4.319-3.847m112.295 1.283c0-.47.384-.855.855-.855.47 0 .854.384.854.855 0 .47-.384.855-.854.855a.857.857 0 0 1-.855-.855m13.678-5.13c0-.47.385-.855.855-.855s.855.385.855.855-.385.855-.855.855a.857.857 0 0 1-.855-.855M244.107 686.39c-3.423-5.93-4.807-14.417-2.925-17.935 1.817-3.394 2.185-3.485 3.63-.902.885 1.58 2.347 2.417 3.249 1.86.902-.558 2.779 1.71 4.17 5.038 3.349 8.017 3.323 10.66-.078 7.838-2.838-2.355-2.924-2.317-5.454 2.391-.949 1.767-2.115 2.536-2.592 1.71m225.234-49.212c-229.327-37.74-291.44-340.565-94.496-460.704 198.982-121.38 440.44 67.981 370.31 290.413-35.811 113.582-158.84 189.542-275.814 170.291m82.393-19.698c182.655-37.445 250.809-261.711 119.321-392.64-120.56-120.05-327.084-73.218-383.602 86.987-59.627 169.017 89.496 341.485 264.28 305.653m-152.76-122.952c-88.198-26.244-91.675-176.704-4.791-207.276 28.09-9.884 89.798-1.12 89.654 12.735-.166 15.965-7.485 20.048-22.959 12.807-55.831-26.127-102.805 12.686-99.575 82.276 3.048 65.698 40.649 92.561 100.902 72.088 19.414-6.596 18.277-6.96 19.475 6.25.85 9.38.596 10.424-3.142 12.851-14.47 9.398-59.903 14.12-79.564 8.27m102.463-4.907c.857-4.682 7.604-24.074 31.704-91.126 6.591-18.338 16.64-46.422 22.331-62.408s12.151-33.684 14.356-39.326l4.008-10.259 15.458-.488c18.598-.588 16.323-2.998 27.881 29.555 5.009 14.106 12.518 34.88 16.687 46.165s12.063 32.828 17.54 47.874a9707 9707 0 0 0 18.738 50.967c4.828 12.985 9.238 25.907 9.8 28.715l1.02 5.106-13.472-.503-13.472-.504-2.923-6.218c-1.607-3.42-6.122-15.731-10.033-27.357-9.483-28.192-3.887-25.413-51.178-25.413-30.47 0-41.03.534-42.271 2.137-.91 1.175-4.507 10.986-7.993 21.8s-8.03 23.125-10.096 27.357l-3.758 7.694-12.601.507-12.602.506zm120.228-79.59c.705-.707-2.377-11.863-6.848-24.792-4.472-12.928-11.461-33.892-15.532-46.588-8.335-25.997-10.266-27.674-14.761-12.823-1.708 5.642-8.641 26.675-15.407 46.739-10.19 30.215-11.885 36.755-9.874 38.078 2.83 1.863 60.519 1.296 62.422-.613" style="fill:#3c2a80;stroke-width:1.70981"/><path d="M406.925 981.526c-1.648-3.079-1.597-3.654.269-3.025 1.267.426 3.305-.447 4.53-1.94 1.921-2.345 2.07-2.132 1.09 1.56-1.727 6.498-3.641 7.605-5.889 3.405m-18.686-24.037c-2.897-4-4.944-7.595-4.55-7.99 1.656-1.655 9.326 5.207 10.34 9.25 1.752 6.977-.118 6.57-5.79-1.26m32.372-3.855c0-3.785 7.562-18.258 9.54-18.258 1.037 0-6.22 19.591-7.87 21.24-1.087 1.088-1.67.048-1.67-2.982m-68.506-43.358c-5.386-7.964-5.415-8.098-.863-3.967 5.123 4.65 8.58 10.064 7.264 11.38-.455.456-3.336-2.88-6.401-7.413m91.614-9.097c4.393-14.842 17.289-40.798 13.592-27.357-1.81 6.583-11.219 28.002-13.143 29.922-1.145 1.142-1.294.29-.449-2.565m-124.525-32.523c-5.164-7.299-4.016-9.3 1.695-2.955 3.79 4.21 6.294 9.852 4.346 9.795-.675-.02-3.394-3.098-6.041-6.84M468.6 843.901c-.003-1.881 1.123-4.914 2.504-6.739 3.332-4.406 3.291.03-.055 5.884-2.16 3.778-2.444 3.877-2.45.855m8.434-18.808c0-.47.385-.855.855-.855s.855.384.855.855c0 .47-.385.855-.855.855a.857.857 0 0 1-.855-.855m1.736-4.601c-.014-1.59.743-3.367 1.683-3.948 2.164-1.338 2.164.926 0 4.274-1.428 2.21-1.66 2.165-1.683-.326m10.233-25.4c0-1.096 1.206-6.65 2.681-12.342 7.44-28.71-65.04-46.068-97.576-23.366-6.206 4.33-43.6 13.205-43.6 10.348 0-3.77 9.103-25.057 11.57-27.056 1.396-1.13 2.112-3.163 1.592-4.518-1.209-3.15 17.554-10.328 26.163-10.008 6.616.246 18.161-4.811 17.588-7.703-.491-2.483 12.772-5.668 22.923-5.506 11.087.177 23.168 3.966 18.708 5.866-2.617 1.115-1.717 1.919 5.012 4.473 5.95 2.258 8.808 2.61 10.411 1.279 7.476-6.204 29.52 13.357 29.631 26.294.014 1.646.84 2.992 1.837 2.992.996 0 1.335.77.754 1.71s-.336 1.71.546 1.71c5.534 0 5.655 9.975.279 22.89-5.098 12.245-8.52 17.44-8.52 12.936m-141.915-9.325c0-.47.385-.855.855-.855s.855.385.855.855-.385.855-.855.855a.857.857 0 0 1-.855-.855m41.036-59.843c0-.47.384-.855.855-.855.47 0 .854.384.854.855 0 .47-.384.855-.854.855a.857.857 0 0 1-.855-.855m13.678-5.13c0-.47.385-.855.855-.855s.855.385.855.855-.385.855-.855.855a.857.857 0 0 1-.855-.855m67.538-83.616c-229.327-37.74-291.44-340.565-94.496-460.704 198.982-121.38 440.44 67.981 370.31 290.413-35.811 113.582-158.84 189.542-275.814 170.291m82.393-19.698c182.655-37.445 250.809-261.711 119.321-392.64-120.56-120.05-327.084-73.218-383.602 86.987-59.627 169.017 89.496 341.485 264.28 305.653m-152.76-122.952c-88.198-26.244-91.675-176.704-4.791-207.276 28.09-9.884 89.798-1.12 89.654 12.735-.166 15.965-7.485 20.048-22.959 12.807-55.831-26.127-102.805 12.686-99.575 82.276 3.048 65.698 40.649 92.561 100.902 72.088 19.414-6.596 18.277-6.96 19.475 6.25.85 9.38.596 10.424-3.142 12.851-14.47 9.398-59.903 14.12-79.564 8.27m102.463-4.907c.857-4.682 7.604-24.074 31.704-91.126 6.591-18.338 16.64-46.422 22.331-62.408s12.151-33.684 14.356-39.326l4.008-10.259 15.458-.488c18.598-.588 16.323-2.998 27.881 29.555 5.009 14.106 12.518 34.88 16.687 46.165s12.063 32.828 17.54 47.874a9707 9707 0 0 0 18.738 50.967c4.828 12.985 9.238 25.907 9.8 28.715l1.02 5.106-13.472-.503-13.472-.504-2.923-6.218c-1.607-3.42-6.122-15.731-10.033-27.357-9.483-28.192-3.887-25.413-51.178-25.413-30.47 0-41.03.534-42.271 2.137-.91 1.175-4.507 10.986-7.993 21.8s-8.03 23.125-10.096 27.357l-3.758 7.694-12.601.507-12.602.506zm120.228-79.59c.705-.707-2.377-11.863-6.848-24.792-4.472-12.928-11.461-33.892-15.532-46.588-8.335-25.997-10.266-27.674-14.761-12.823-1.708 5.642-8.641 26.675-15.407 46.739-10.19 30.215-11.885 36.755-9.874 38.078 2.83 1.863 60.519 1.296 62.422-.613" style="fill:#382774;stroke-width:1.70981"/><path d="M499.262 766.104c-1.193-2.881-1.785-5.624-1.315-6.094s1.832 1.503 3.025 4.384c1.194 2.882 1.786 5.624 1.315 6.094-.47.47-1.831-1.502-3.025-4.384m-3.42-9.404c0-.47.385-.855.856-.855.47 0 .855.385.855.855s-.385.855-.855.855a.857.857 0 0 1-.855-.855m-5.145-9.443c-1.7-4.103-4.985-6.606-14.763-11.246-6.918-3.283-12.578-6.658-12.578-7.5 0-8.465 25.145 4.836 28.551 15.103 2.878 8.675 1.987 11.36-1.21 3.643m-127.004-8.505c-.654-2.502 1.378-3.903 10.528-7.26 14.346-5.262 20.87-4.377 11.125 1.508-11.679 7.054-20.687 9.447-21.653 5.752m24.432-12.828c0-.47.384-.855.855-.855.47 0 .854.384.854.855 0 .47-.384.854-.854.854a.857.857 0 0 1-.855-.854m19.378-5.423c0-2.664 12.57-5.724 22.842-5.56 9.71.155 23.196 4 19.333 5.51-5.352 2.095-42.175 2.138-42.175.05m-5.7.293c0-.47.385-.855.855-.855s.855.385.855.855-.385.855-.855.855a.857.857 0 0 1-.855-.855m67.538-83.616c-229.327-37.74-291.44-340.565-94.496-460.704 198.982-121.38 440.44 67.981 370.31 290.413-35.811 113.582-158.84 189.542-275.814 170.291m82.393-19.698c182.655-37.445 250.809-261.711 119.321-392.64-120.56-120.05-327.084-73.218-383.602 86.987-59.627 169.017 89.496 341.485 264.28 305.653m-152.76-122.952c-88.198-26.244-91.675-176.704-4.791-207.276 28.09-9.884 89.798-1.12 89.654 12.735-.166 15.965-7.485 20.048-22.959 12.807-55.831-26.127-102.805 12.686-99.575 82.276 3.048 65.698 40.649 92.561 100.902 72.088 19.414-6.596 18.277-6.96 19.475 6.25.85 9.38.596 10.424-3.142 12.851-14.47 9.398-59.903 14.12-79.564 8.27m102.463-4.907c.857-4.682 7.604-24.074 31.704-91.126 6.591-18.338 16.64-46.422 22.331-62.408s12.151-33.684 14.356-39.326l4.008-10.259 15.458-.488c18.598-.588 16.323-2.998 27.881 29.555 5.009 14.106 12.518 34.88 16.687 46.165s12.063 32.828 17.54 47.874a9707 9707 0 0 0 18.738 50.967c4.828 12.985 9.238 25.907 9.8 28.715l1.02 5.106-13.472-.503-13.472-.504-2.923-6.218c-1.607-3.42-6.122-15.731-10.033-27.357-9.483-28.192-3.887-25.413-51.178-25.413-30.47 0-41.03.534-42.271 2.137-.91 1.175-4.507 10.986-7.993 21.8s-8.03 23.125-10.096 27.357l-3.758 7.694-12.601.507-12.602.506zm120.228-79.59c.705-.707-2.377-11.863-6.848-24.792-4.472-12.928-11.461-33.892-15.532-46.588-8.335-25.997-10.266-27.674-14.761-12.823-1.708 5.642-8.641 26.675-15.407 46.739-10.19 30.215-11.885 36.755-9.874 38.078 2.83 1.863 60.519 1.296 62.422-.613" style="fill:#c90602;stroke-width:1.70981"/><path d="M499.262 766.104c-1.193-2.881-1.785-5.624-1.315-6.094s1.832 1.503 3.025 4.384c1.194 2.882 1.786 5.624 1.315 6.094-.47.47-1.831-1.502-3.025-4.384m-3.42-9.404c0-.47.385-.855.856-.855.47 0 .855.385.855.855s-.385.855-.855.855a.857.857 0 0 1-.855-.855m-5.145-9.443c-1.7-4.103-4.985-6.606-14.763-11.246-6.918-3.283-12.578-6.658-12.578-7.5 0-8.465 25.145 4.836 28.551 15.103 2.878 8.675 1.987 11.36-1.21 3.643m-127.004-8.505c-.654-2.502 1.378-3.903 10.528-7.26 14.346-5.262 20.87-4.377 11.125 1.508-11.679 7.054-20.687 9.447-21.653 5.752m24.432-12.828c0-.47.384-.855.855-.855.47 0 .854.384.854.855 0 .47-.384.854-.854.854a.857.857 0 0 1-.855-.854m19.378-5.423c0-2.664 12.57-5.724 22.842-5.56 9.71.155 23.196 4 19.333 5.51-5.352 2.095-42.175 2.138-42.175.05m-5.7.293c0-.47.385-.855.855-.855s.855.385.855.855-.385.855-.855.855a.857.857 0 0 1-.855-.855m-2.83-226.266c-88.197-26.244-91.674-176.704-4.79-207.276 28.09-9.884 89.798-1.12 89.654 12.735-.166 15.965-7.485 20.048-22.959 12.807-55.831-26.127-102.805 12.686-99.575 82.276 3.048 65.698 40.649 92.561 100.902 72.088 19.414-6.596 18.277-6.96 19.475 6.25.85 9.38.596 10.424-3.142 12.851-14.47 9.398-59.903 14.12-79.564 8.27m102.464-4.907c.857-4.682 7.604-24.074 31.704-91.126 6.591-18.338 16.64-46.422 22.331-62.408s12.151-33.684 14.356-39.326l4.008-10.259 15.458-.488c18.598-.588 16.323-2.998 27.881 29.555 5.009 14.106 12.518 34.88 16.687 46.165s12.063 32.828 17.54 47.874a9707 9707 0 0 0 18.738 50.967c4.828 12.985 9.238 25.907 9.8 28.715l1.02 5.106-13.472-.503-13.472-.504-2.923-6.218c-1.607-3.42-6.122-15.731-10.033-27.357-9.483-28.192-3.887-25.413-51.178-25.413-30.47 0-41.03.534-42.271 2.137-.91 1.175-4.507 10.986-7.993 21.8s-8.03 23.125-10.096 27.357l-3.758 7.694-12.601.507-12.602.506zm120.228-79.59c.705-.707-2.377-11.863-6.848-24.792-4.472-12.928-11.461-33.892-15.532-46.588-8.335-25.997-10.266-27.674-14.761-12.823-1.708 5.642-8.641 26.675-15.407 46.739-10.19 30.215-11.885 36.755-9.874 38.078 2.83 1.863 60.519 1.296 62.422-.613" style="fill:#393a39;stroke-width:1.70981"/><path d="M477.035 731.908c-14.364-7.471-15.094-8.983-1.331-2.756 7.936 3.59 17.38 9.54 15.01 9.456-.47-.017-6.626-3.032-13.68-6.7m-114.415 4.42c.392-.391 6.097-2.737 12.68-5.214 13.498-5.079 13.266-3.442-.316 2.224-7.992 3.335-14.222 4.84-12.364 2.99m25.505-10.404c0-.47.384-.855.855-.855.47 0 .854.384.854.855 0 .47-.384.855-.854.855a.857.857 0 0 1-.855-.855m13.678-5.13c0-.47.385-.855.855-.855s.855.385.855.855-.385.855-.855.855a.857.857 0 0 1-.855-.855m11.114-3.424c3.762-1.264 11.071-2.297 16.243-2.297s12.482 1.033 16.243 2.297l6.84 2.297-7.695-1.146c-9.14-1.362-20.196-1.324-30.776.106l-7.694 1.04zm-13.943-222.842c-88.198-26.244-91.675-176.704-4.791-207.276 28.09-9.884 89.798-1.12 89.654 12.735-.166 15.965-7.485 20.048-22.959 12.807-55.831-26.127-102.805 12.686-99.575 82.276 3.048 65.698 40.649 92.561 100.902 72.088 19.414-6.596 18.277-6.96 19.475 6.25.85 9.38.596 10.424-3.142 12.851-14.47 9.398-59.903 14.12-79.564 8.27m102.463-4.907c.857-4.682 7.604-24.074 31.704-91.126 6.591-18.338 16.64-46.422 22.331-62.408s12.151-33.684 14.356-39.326l4.008-10.259 15.458-.488c18.598-.588 16.323-2.998 27.881 29.555 5.009 14.106 12.518 34.88 16.687 46.165s12.063 32.828 17.54 47.874a9707 9707 0 0 0 18.738 50.967c4.828 12.985 9.238 25.907 9.8 28.715l1.02 5.106-13.472-.503-13.472-.504-2.923-6.218c-1.607-3.42-6.122-15.731-10.033-27.357-9.483-28.192-3.887-25.413-51.178-25.413-30.47 0-41.03.534-42.271 2.137-.91 1.175-4.507 10.986-7.993 21.8s-8.03 23.125-10.096 27.357l-3.758 7.694-12.601.507-12.602.506zm120.228-79.59c.705-.707-2.377-11.863-6.848-24.792-4.472-12.928-11.461-33.892-15.532-46.588-8.335-25.997-10.266-27.674-14.761-12.823-1.708 5.642-8.641 26.675-15.407 46.739-10.19 30.215-11.885 36.755-9.874 38.078 2.83 1.863 60.519 1.296 62.422-.613" style="fill:#581810;stroke-width:1.70981"/><path d="M411.207 494.283c-50.888-8.492-78.363-48.565-75.597-110.263 3.56-79.399 66.064-120.951 135.247-89.91l11.396 5.112-2.698 6.464c-4.017 9.622-5.025 10.085-13.18 6.065-58.752-28.963-112.347 10.979-108.41 80.791 3.95 70.032 39.73 97.275 102.505 78.048 18.224-5.581 17.83-5.7 18.643 5.634.602 8.383-1.812 9.812-24.598 14.567-20.557 4.289-32.676 5.266-43.308 3.492m92.664-2.918c-.526-.85.42-4.621 2.103-8.379 1.682-3.758 5.559-14.878 8.614-24.713 3.055-9.834 6.907-20.575 8.559-23.869 1.652-3.293 5.092-12.528 7.645-20.521s8.4-24.536 12.994-36.761 12.19-33.384 16.882-47.02 10.03-28.64 11.862-33.341l3.331-8.55h28.397l4.512 12.824c7.729 21.972 20.406 56.673 25.922 70.958 2.905 7.523 8.953 24.542 13.44 37.821 4.488 13.279 10.43 29.052 13.206 35.051 4.25 9.186 9.016 22.723 14.823 42.112 1.112 3.712.763 3.848-9.895 3.848H655.22l-4.337-10.834c-2.385-5.958-5.556-15.539-7.046-21.29-4.572-17.641-8.825-25.997-13.285-26.102-91.432-2.139-85.456-2.752-88.686 9.096-8.186 30.024-16.41 49.123-21.162 49.148-1.918.01-6.275.48-9.682 1.044-3.407.563-6.625.328-7.15-.522m120.75-79.05c1.682-1.683-6.219-28.65-14.924-50.936-3.382-8.659-8.274-23.663-10.872-33.341-5.636-20.995-10.601-24.999-14.003-11.293-1.007 4.055-4.176 13.528-7.043 21.051-11.266 29.563-23.815 70.636-22.572 73.88 1.411 3.685 65.776 4.277 69.414.639" style="fill:#370d0a;stroke-width:1.70981"/></svg>